<svg width="20" height="20" viewBox="0 0 20 20" fill="none" xmlns="http://www.w3.org/2000/svg">
<path d="M0 13.75C0 15.6484 1.05406 17.1875 3.125 17.1875H16.875C18.9459 17.1875 20 15.6484 20 13.75V10.3125H0V13.75Z" fill="#29B473"/>
<path d="M16.875 3.4375H3.125C1.05406 3.4375 0 4.97656 0 6.875V12.1875H20V6.875C20 4.97656 18.9459 3.4375 16.875 3.4375Z" fill="#CB0000"/>
<path d="M3.125 3.4375C1.05406 3.4375 0 4.97656 0 6.875V13.75C0 15.6484 1.05406 17.1875 3.125 17.1875H4.375V3.4375H3.125Z" fill="#E6E7E8"/>
<path fill-rule="evenodd" clip-rule="evenodd" d="M3.78518 10.2526C3.78518 10.2898 3.78206 10.3276 3.78612 10.3651C3.79081 10.4123 3.7605 10.4232 3.69737 10.4232C3.63425 10.4238 3.60768 10.4107 3.60956 10.3645C3.61411 10.2891 3.61411 10.2136 3.60956 10.1382C3.60675 10.0895 3.63612 10.0807 3.69831 10.0801C3.76112 10.0801 3.79081 10.0916 3.78612 10.1388C3.78237 10.1766 3.78518 10.2135 3.78518 10.2526Z" fill="#CD0808"/>
<path fill-rule="evenodd" clip-rule="evenodd" d="M1.02189 15.9551C1.02189 15.9867 1.02002 16.0185 1.02314 16.0501C1.0272 16.0951 1.02627 16.1263 0.934704 16.1257C0.850954 16.1238 0.850329 16.096 0.851892 16.0554C0.853767 15.9887 0.853767 15.9222 0.851892 15.8557C0.850954 15.8145 0.850954 15.7848 0.934704 15.7832C1.0272 15.7826 1.0272 15.8157 1.02314 15.8607C1.02189 15.8924 1.02147 15.9238 1.02189 15.9551Z" fill="#CC0303"/>
<path fill-rule="evenodd" clip-rule="evenodd" d="M0.854361 12.8687C0.854361 12.8293 0.857174 12.7918 0.853424 12.754C0.848736 12.709 0.871861 12.6937 0.939674 12.6937C1.00374 12.6937 1.02842 12.7074 1.02436 12.7534C1.01936 12.8255 1.02124 12.8996 1.02436 12.9721C1.02655 13.0115 1.02249 13.0368 0.946549 13.0362C0.877174 13.0355 0.843736 13.0246 0.853111 12.9734C0.858111 12.9387 0.854361 12.9034 0.854361 12.8687ZM2.40249 12.8687C2.40249 12.9027 2.39967 12.9377 2.40436 12.9721C2.40999 13.0193 2.38842 13.0362 2.31561 13.0368C2.23186 13.038 2.23061 13.0096 2.23092 12.968C2.23477 12.8988 2.23477 12.8295 2.23092 12.7602C2.22842 12.7143 2.24311 12.6934 2.31999 12.6934C2.40249 12.6934 2.40499 12.7224 2.40342 12.764C2.40061 12.799 2.40249 12.8334 2.40249 12.8687Z" fill="#CC0202"/>
<path fill-rule="evenodd" clip-rule="evenodd" d="M3.78576 12.8681C3.78576 12.9021 3.78169 12.9371 3.78669 12.9715C3.79326 13.0199 3.76701 13.0356 3.69513 13.0362C3.61451 13.0368 3.60919 13.0102 3.61076 12.9668C3.61424 12.898 3.61393 12.829 3.60982 12.7602C3.60701 12.7115 3.62669 12.6934 3.70044 12.6934C3.78263 12.6927 3.78826 12.7212 3.78638 12.764C3.78294 12.799 3.78576 12.8327 3.78576 12.8681ZM3.78576 14.3224C3.78576 14.3602 3.78263 14.3977 3.78669 14.4346C3.79232 14.4849 3.76169 14.5002 3.69107 14.4996C3.62107 14.4987 3.60888 14.4774 3.61076 14.4362C3.61545 14.3641 3.61514 14.2917 3.60982 14.2196C3.60513 14.1665 3.63763 14.1584 3.70419 14.1577C3.77357 14.1568 3.79107 14.1762 3.78669 14.2184C3.78294 14.2527 3.78576 14.2877 3.78576 14.3224Z" fill="#CC0606"/>
<path fill-rule="evenodd" clip-rule="evenodd" d="M2.23123 14.3279C2.23216 14.2898 2.23591 14.251 2.23029 14.2132C2.22248 14.1623 2.26029 14.1589 2.31935 14.1576C2.38779 14.156 2.40622 14.1729 2.40372 14.217C2.39946 14.2899 2.39946 14.3631 2.40372 14.4361C2.40466 14.4789 2.39091 14.4979 2.32122 14.4995C2.24372 14.5001 2.22466 14.4789 2.23029 14.432C2.23466 14.3976 2.23123 14.3626 2.23123 14.3279ZM0.853725 14.3273C0.853725 14.2929 0.857475 14.2576 0.852787 14.2229C0.846225 14.1754 0.864662 14.1576 0.941537 14.1561C1.02466 14.1548 1.02622 14.1848 1.02404 14.227C1.02072 14.2965 1.02072 14.3662 1.02404 14.4357C1.02622 14.4776 1.01497 14.4982 0.943412 14.4998C0.866537 14.5004 0.847475 14.4801 0.852787 14.4323C0.856537 14.397 0.853725 14.3626 0.853725 14.3273ZM1.02279 10.2473C1.02279 10.2817 1.02216 10.3167 1.02404 10.352C1.02622 10.3929 1.0281 10.4242 0.941537 10.4236C0.8656 10.4229 0.84935 10.4029 0.852787 10.3561C0.856363 10.2864 0.85605 10.2166 0.85185 10.147C0.84935 10.0998 0.8656 10.0807 0.942787 10.0801C1.02779 10.0789 1.02622 10.1111 1.02404 10.1517C1.02279 10.1831 1.02237 10.215 1.02279 10.2473Z" fill="#CC0202"/>
<path fill-rule="evenodd" clip-rule="evenodd" d="M0.853197 6.17561C0.853197 6.13811 0.85601 6.09967 0.85226 6.06248C0.846947 6.01436 0.880072 6.00654 0.94101 6.00592C1.00976 6.00467 1.02632 6.02311 1.02351 6.06623C1.01934 6.13836 1.01934 6.21067 1.02351 6.28279C1.02757 6.32936 1.0107 6.34842 0.93601 6.34904C0.853197 6.34904 0.849135 6.32186 0.85226 6.27936C0.855072 6.24498 0.853197 6.21029 0.853197 6.17561Z" fill="#CB0101"/>
<path fill-rule="evenodd" clip-rule="evenodd" d="M3.60791 7.6272C3.60791 7.59501 3.61166 7.56314 3.60697 7.53158C3.59759 7.4797 3.63259 7.46939 3.70041 7.46876C3.77166 7.46814 3.78478 7.48845 3.78291 7.53095C3.77865 7.60381 3.77865 7.67685 3.78291 7.7497C3.78478 7.79533 3.76103 7.81033 3.69509 7.8097C3.63103 7.8097 3.60259 7.79783 3.60728 7.75095C3.61072 7.71033 3.60791 7.66845 3.60791 7.6272Z" fill="#CC0606"/>
<path fill-rule="evenodd" clip-rule="evenodd" d="M2.23129 7.63305C2.23129 7.59867 2.2341 7.56336 2.22941 7.52961C2.22504 7.4868 2.2416 7.4693 2.31129 7.4693C2.3816 7.4693 2.40754 7.48273 2.40285 7.53211C2.39724 7.6045 2.39724 7.67722 2.40285 7.74961C2.4066 7.8018 2.3741 7.81023 2.3066 7.81148C2.22941 7.81242 2.22879 7.78461 2.23035 7.74617C2.23223 7.70867 2.23129 7.67148 2.23129 7.63305ZM1.02191 7.6393C1.02191 7.67148 1.02129 7.70273 1.02316 7.7343C1.02629 7.77867 1.02723 7.81242 0.934727 7.81148C0.849414 7.81023 0.850977 7.77961 0.851914 7.73898C0.852852 7.67305 0.853789 7.60586 0.851914 7.5393C0.850352 7.49742 0.850352 7.46773 0.934727 7.46898C1.00941 7.46961 1.03004 7.48742 1.02316 7.5343C1.01848 7.56961 1.02191 7.60398 1.02191 7.6393ZM2.40098 6.18305C2.40098 6.21773 2.39816 6.25336 2.40285 6.28773C2.40754 6.3318 2.38785 6.34805 2.32035 6.3493C2.24535 6.34992 2.22566 6.33148 2.22941 6.28305C2.2346 6.21346 2.2346 6.14358 2.22941 6.07398C2.22754 6.02836 2.24098 6.00586 2.31848 6.00586C2.40348 6.00586 2.40348 6.03711 2.40191 6.07805C2.3991 6.11305 2.40098 6.14773 2.40098 6.18305Z" fill="#CC0202"/>
<path fill-rule="evenodd" clip-rule="evenodd" d="M3.78258 6.18244C3.78258 6.21682 3.77946 6.25151 3.78352 6.28651C3.78821 6.32869 3.77321 6.34932 3.70196 6.34869C3.63633 6.34744 3.60227 6.34026 3.60571 6.28651C3.61289 6.21119 3.61133 6.13526 3.60758 6.05963C3.60571 6.01807 3.62946 6.00526 3.68789 6.00588C3.74446 6.00588 3.78696 6.00869 3.78352 6.05963C3.77977 6.10026 3.78258 6.14119 3.78258 6.18244Z" fill="#CC0505"/>
<path fill-rule="evenodd" clip-rule="evenodd" d="M3.78572 15.9624C3.78572 15.9971 3.78259 16.0324 3.78666 16.0668C3.79134 16.1096 3.77353 16.129 3.70416 16.129C3.63634 16.1284 3.60541 16.1174 3.60978 16.0649C3.61495 15.9954 3.61495 15.9257 3.60978 15.8562C3.60791 15.8109 3.62197 15.7877 3.69853 15.7871C3.77791 15.7871 3.79009 15.8134 3.78634 15.8574C3.78291 15.8927 3.78572 15.9277 3.78572 15.9624Z" fill="#CD0606"/>
<path fill-rule="evenodd" clip-rule="evenodd" d="M0.853522 4.53734C0.853522 4.50297 0.857272 4.46766 0.852585 4.43297C0.84446 4.38172 0.88571 4.37891 0.94321 4.37891C0.99696 4.37891 1.02696 4.38609 1.02383 4.42984C1.01887 4.50852 1.01887 4.58742 1.02383 4.66609C1.02696 4.71266 0.99321 4.71766 0.941335 4.71641C0.893522 4.71516 0.847897 4.71891 0.852585 4.66984C0.856335 4.62547 0.853522 4.58109 0.853522 4.53734Z" fill="#CB0000"/>
<path fill-rule="evenodd" clip-rule="evenodd" d="M3.78541 4.54614C3.78541 4.58395 3.78135 4.62176 3.78635 4.65895C3.79197 4.70676 3.7576 4.71739 3.6976 4.71739C3.6326 4.71801 3.60791 4.70395 3.61072 4.65801C3.61543 4.58579 3.61512 4.51332 3.60978 4.44114C3.6051 4.38739 3.64103 4.37958 3.70603 4.37895C3.77791 4.3777 3.78947 4.40208 3.78666 4.44239C3.7826 4.47583 3.78541 4.51145 3.78541 4.54614Z" fill="#CC0404"/>
<path fill-rule="evenodd" clip-rule="evenodd" d="M1.02246 8.995C1.01621 9.02438 1.04278 9.06344 1.00778 9.09188C0.980275 9.11344 0.9309 9.10063 0.891525 9.09938C0.8534 9.09813 0.8534 9.07625 0.8534 9.05781C0.852463 9.0225 0.8534 8.9875 0.852463 8.95281C0.8509 8.91063 0.84215 8.875 0.938713 8.875C1.03278 8.875 1.02653 8.91 1.0234 8.95281C1.02215 8.96469 1.02246 8.97781 1.02246 8.995Z" fill="#CC0505"/>
<path fill-rule="evenodd" clip-rule="evenodd" d="M3.60777 11.5182C3.60777 11.4929 3.60871 11.4679 3.60777 11.4429C3.60589 11.3997 3.64964 11.4026 3.69121 11.4026C3.73152 11.4026 3.77871 11.3972 3.77964 11.4394C3.78277 11.4769 3.78089 11.5144 3.78277 11.5526C3.78464 11.5947 3.79089 11.6304 3.69683 11.6304C3.60996 11.6297 3.60058 11.6016 3.60714 11.5557C3.60871 11.5429 3.60683 11.5301 3.60777 11.5182Z" fill="#CD0909"/>
<path fill-rule="evenodd" clip-rule="evenodd" d="M1.02207 11.5154C1.01051 11.5617 1.07176 11.6429 0.912382 11.6282C0.863319 11.6245 0.850819 11.6117 0.852382 11.582C0.853844 11.5471 0.853844 11.5122 0.852382 11.4773C0.848944 11.4317 0.852382 11.3995 0.943007 11.4004C1.03019 11.4017 1.02582 11.4342 1.02238 11.4738C1.02176 11.487 1.02207 11.4988 1.02207 11.5154Z" fill="#CC0404"/>
<path fill-rule="evenodd" clip-rule="evenodd" d="M3.60744 8.97421C3.62057 8.94671 3.58151 8.9064 3.63307 8.88171C3.69526 8.85265 3.77932 8.88702 3.78244 8.93921C3.78432 8.96765 3.78151 8.9964 3.78338 9.02421C3.78526 9.06733 3.78994 9.10483 3.69557 9.10483C3.60307 9.10483 3.60401 9.07046 3.60776 9.0264C3.60932 9.01015 3.60744 8.9939 3.60744 8.97421Z" fill="#CD0A0A"/>
<path fill-rule="evenodd" clip-rule="evenodd" d="M3.74131 5.27992C3.73756 5.2768 3.7235 5.27805 3.71444 5.2793C3.61506 5.2918 3.60069 5.25492 3.60694 5.19742C3.61256 5.1468 3.60788 5.09586 3.60788 5.04492C3.60881 5.01742 3.60319 4.98992 3.55006 4.99742C3.42569 5.01305 3.436 4.9568 3.43787 4.90086C3.44069 4.85711 3.43788 4.81242 3.43881 4.76742C3.43975 4.74055 3.436 4.71242 3.38381 4.71742C3.26538 4.7293 3.26069 4.6818 3.26538 4.62117C3.27006 4.5768 3.26725 4.53211 3.26725 4.48805C3.26725 4.46617 3.26819 4.43492 3.22475 4.43898C3.05131 4.45523 3.09319 4.36961 3.08944 4.30617C3.08735 4.25576 3.08496 4.20513 3.08225 4.1543H2.91787C2.85381 4.19742 2.86569 4.25305 2.86194 4.30617C2.86006 4.34336 2.86662 4.38461 2.80475 4.40555C2.71037 4.43648 2.701 4.49523 2.69725 4.5568C2.69444 4.59461 2.71412 4.6418 2.65631 4.6618C2.53537 4.70492 2.53256 4.77867 2.53194 4.8568C2.53194 4.89398 2.53912 4.93836 2.47256 4.95367C2.35881 4.98055 2.3435 5.04273 2.34006 5.11367C2.33819 5.14555 2.35131 5.18117 2.31256 5.2143C2.26881 5.17086 2.29037 5.12898 2.28381 5.0893C2.27631 5.04805 2.27538 5.00023 2.22006 4.97867C2.12569 4.94336 2.11662 4.88961 2.1185 4.8268C2.11944 4.76805 2.10256 4.70961 2.01569 4.68273C1.93725 4.65836 1.92663 4.61742 1.92663 4.56711C1.926 4.51023 1.92975 4.44742 1.84381 4.41617C1.77381 4.39117 1.76194 4.35398 1.76194 4.30617C1.76194 4.25305 1.77194 4.19711 1.70756 4.1543H1.5435C1.54162 4.23055 1.54069 4.30659 1.54069 4.38242C1.54162 4.41492 1.53506 4.44305 1.47506 4.43648C1.36131 4.42398 1.36319 4.47273 1.3685 4.52742C1.37069 4.5718 1.36756 4.6168 1.36944 4.66086C1.36944 4.69305 1.36037 4.72117 1.30319 4.71555C1.19381 4.70523 1.1835 4.74805 1.19131 4.80617C1.196 4.84773 1.18787 4.88867 1.19319 4.93086C1.19694 4.97523 1.18381 5.0043 1.10537 4.99648C1.0385 4.98867 1.01475 5.00961 1.02037 5.05523C1.02537 5.09555 1.0185 5.13711 1.02225 5.17898C1.02631 5.23836 1.03444 5.2968 0.902875 5.27898C0.87975 5.27648 0.853812 5.28086 0.853812 5.30117C0.852875 5.38086 0.852875 5.45961 0.857562 5.53992C0.857562 5.55961 0.886312 5.56367 0.909437 5.56023C1.03319 5.54273 1.02537 5.59992 1.02225 5.65555C1.01912 5.70023 1.021 5.7443 1.02037 5.78867C1.02037 5.81555 1.02037 5.84555 1.07412 5.83867C1.19256 5.82648 1.19975 5.87336 1.1935 5.93492C1.18819 5.97617 1.19444 6.01773 1.19162 6.05867C1.18756 6.10211 1.2035 6.12773 1.27381 6.11961C1.35819 6.11055 1.37381 6.1418 1.37006 6.19211C1.36537 6.24648 1.37006 6.30023 1.36913 6.3543C1.36913 6.38211 1.37225 6.40961 1.426 6.40242C1.546 6.3868 1.54787 6.4368 1.54225 6.49617C1.53881 6.53805 1.54412 6.57867 1.54037 6.61992C1.53569 6.66711 1.5535 6.68773 1.63038 6.68711C1.70162 6.68648 1.71381 6.66617 1.71194 6.6243C1.70819 6.56648 1.71194 6.50961 1.711 6.45211C1.71006 6.42523 1.71288 6.3968 1.76631 6.40367C1.90319 6.4218 1.88662 6.35867 1.88381 6.30086C1.88194 6.2568 1.88381 6.21211 1.88381 6.16773C1.88381 6.13805 1.89694 6.11492 1.94475 6.12086C2.06694 6.13523 2.06506 6.08242 2.06037 6.02461C2.05756 5.98023 2.06037 5.93555 2.06037 5.89117C2.05944 5.86273 2.066 5.83555 2.11631 5.84117C2.23912 5.85523 2.23413 5.80273 2.23037 5.74492C2.22787 5.7068 2.23319 5.6693 2.22944 5.63086C2.226 5.58773 2.23037 5.56117 2.31412 5.5618C2.39194 5.5618 2.40475 5.58336 2.401 5.62898C2.39725 5.68273 2.40194 5.73648 2.40006 5.79117C2.39912 5.82148 2.411 5.84461 2.45881 5.8393C2.57944 5.82648 2.58131 5.87773 2.57662 5.93711C2.57287 5.98117 2.57662 6.02617 2.57569 6.07023C2.57475 6.09867 2.57944 6.12586 2.63194 6.11898C2.74944 6.10617 2.75631 6.15367 2.75037 6.21461C2.74569 6.26211 2.74944 6.30961 2.74944 6.35711C2.74944 6.37961 2.74756 6.40836 2.79569 6.40273C2.93663 6.38461 2.92256 6.44836 2.91912 6.5093C2.91725 6.54711 2.92194 6.58586 2.91912 6.62336C2.91381 6.66492 2.92725 6.68742 2.9985 6.68742C3.0735 6.68805 3.09569 6.6693 3.09194 6.62023C3.08725 6.5668 3.091 6.51273 3.09006 6.45867C3.08912 6.42836 3.08912 6.39648 3.15131 6.40367C3.27225 6.41773 3.27319 6.36742 3.2685 6.30867C3.26381 6.26117 3.2685 6.21305 3.26756 6.16586C3.26662 6.13492 3.2835 6.1143 3.33069 6.12055C3.44537 6.1343 3.44412 6.08617 3.44006 6.03023C3.43631 5.98273 3.441 5.93523 3.43819 5.88805C3.43725 5.8568 3.44975 5.83555 3.49881 5.84117C3.61069 5.85336 3.61506 5.80805 3.60913 5.75148C3.60538 5.71367 3.61288 5.67367 3.60725 5.6368C3.60006 5.5818 3.61944 5.5518 3.71006 5.56148C3.77725 5.56805 3.78944 5.53555 3.78006 5.5018C3.75944 5.42805 3.83006 5.34711 3.74131 5.27992ZM2.05475 5.53773C2.0535 5.5618 2.01756 5.5643 1.99162 5.56086C1.87694 5.54711 1.87694 5.59742 1.88225 5.6518C1.886 5.69055 1.88038 5.72867 1.88319 5.76586C1.88819 5.81398 1.8785 5.84961 1.79069 5.84023C1.72131 5.83367 1.70662 5.86117 1.70944 5.90305C1.71319 5.95367 1.70662 6.00492 1.71131 6.05492C1.71506 6.10117 1.701 6.12211 1.6235 6.12211C1.53881 6.12273 1.5385 6.09336 1.53975 6.05211C1.5435 6.00742 1.53694 5.96273 1.54163 5.91805C1.54819 5.86617 1.53631 5.83023 1.44194 5.8393C1.37819 5.84586 1.36506 5.81898 1.36881 5.7818C1.371 5.74711 1.36881 5.71148 1.36975 5.6768C1.371 5.61492 1.39506 5.54273 1.24131 5.55961C1.19975 5.56555 1.19225 5.53898 1.19225 5.51492V5.4193C1.19225 5.39461 1.19506 5.36898 1.19131 5.34336C1.18381 5.29648 1.20631 5.27023 1.281 5.27867C1.35756 5.28742 1.37444 5.25898 1.36944 5.21273C1.36475 5.16867 1.37162 5.1243 1.3685 5.07898C1.36287 5.02648 1.36944 4.98273 1.47413 4.99555C1.531 5.00211 1.5435 4.97867 1.54163 4.94461C1.53819 4.89086 1.5435 4.83711 1.53975 4.78242C1.53631 4.7368 1.54881 4.71461 1.62663 4.71461C1.71194 4.71398 1.71287 4.7443 1.71131 4.78617C1.7085 4.82992 1.71413 4.87523 1.7085 4.91867C1.70256 4.97211 1.71569 5.00648 1.80913 4.99617C1.87475 4.98898 1.88475 5.0168 1.88288 5.05461C1.881 5.10148 1.88569 5.14961 1.881 5.19648C1.87631 5.25211 1.88662 5.29211 1.9885 5.27961C2.01444 5.27648 2.05444 5.27336 2.05506 5.2993C2.06006 5.37961 2.05912 5.45836 2.05475 5.53773ZM3.35413 5.5618C3.27819 5.55336 3.26069 5.58055 3.26538 5.62711C3.27006 5.66805 3.26256 5.70992 3.26819 5.75086C3.27381 5.80867 3.26444 5.85211 3.15538 5.8418C3.09912 5.83617 3.08787 5.86273 3.08881 5.89555C3.09162 5.94648 3.08694 5.99773 3.09069 6.04805C3.09444 6.09523 3.08787 6.12305 2.99913 6.12305C2.91319 6.12117 2.91537 6.09055 2.91881 6.05086C2.92069 6.01242 2.91694 5.97492 2.91881 5.93617C2.9235 5.87898 2.92694 5.82586 2.80506 5.8393C2.751 5.84586 2.74819 5.81836 2.74912 5.79055C2.75006 5.74555 2.74631 5.70211 2.75006 5.65742C2.75444 5.59992 2.75787 5.54555 2.63537 5.5618C2.631 5.5618 2.62475 5.56242 2.62287 5.56086C2.52569 5.49211 2.59756 5.40773 2.57662 5.33211C2.56537 5.28961 2.596 5.27305 2.65412 5.27961C2.73444 5.28773 2.75694 5.26117 2.75037 5.2093C2.74475 5.16898 2.75287 5.1268 2.7485 5.08648C2.74287 5.02961 2.74569 4.98148 2.85787 4.99586C2.90787 5.0018 2.921 4.98211 2.91912 4.95148C2.91725 4.8943 2.92194 4.83742 2.91912 4.77961C2.91569 4.73992 2.92381 4.71492 2.99662 4.71492C3.06787 4.71492 3.09694 4.72867 3.091 4.77961C3.08631 4.82367 3.09381 4.86898 3.08912 4.91305C3.08444 4.96617 3.091 5.00898 3.19475 4.99742C3.24819 4.99023 3.2685 5.00992 3.26756 5.04648C3.26569 5.09711 3.27131 5.14773 3.26569 5.19805C3.26037 5.25492 3.27381 5.29117 3.37413 5.2793C3.43163 5.27211 3.44256 5.29711 3.43913 5.33055C3.43725 5.3593 3.43913 5.38742 3.43913 5.41617C3.43913 5.44461 3.43631 5.47336 3.44006 5.50148C3.44506 5.54586 3.421 5.56836 3.35413 5.5618ZM3.7735 14.9671C3.7735 14.9474 3.74475 14.9418 3.72288 14.9449C3.60163 14.9602 3.60162 14.9087 3.60631 14.8505C3.61006 14.8055 3.60725 14.7615 3.60725 14.7162C3.60819 14.689 3.60725 14.6599 3.55381 14.6662C3.43225 14.6799 3.43225 14.6293 3.43725 14.5699C3.44162 14.5255 3.43631 14.4812 3.43913 14.4365C3.441 14.4027 3.42881 14.3787 3.37131 14.3862C3.26756 14.3987 3.26194 14.3552 3.26569 14.3018C3.26944 14.2505 3.26475 14.1999 3.26662 14.1493C3.26756 14.1184 3.25475 14.0968 3.20537 14.1034C3.08631 14.118 3.08256 14.069 3.08819 14.009C3.09288 13.9637 3.08631 13.9199 3.09006 13.8755C3.09475 13.8255 3.0585 13.8184 2.99756 13.8184C2.941 13.819 2.91287 13.8299 2.91725 13.8721C2.921 13.9321 2.91819 13.9934 2.91819 14.0527C2.91819 14.0799 2.91819 14.109 2.86319 14.1018C2.74194 14.0855 2.74381 14.1374 2.74756 14.1962C2.75194 14.2424 2.7485 14.2912 2.7485 14.339C2.7485 14.3627 2.74381 14.3884 2.69975 14.3843C2.54506 14.3671 2.576 14.4418 2.57506 14.5015C2.57419 14.5397 2.57419 14.5779 2.57506 14.6162C2.576 14.6455 2.56288 14.6696 2.51506 14.6634C2.39194 14.6505 2.39475 14.704 2.39944 14.7618C2.40225 14.7993 2.39662 14.8374 2.40037 14.8752C2.406 14.9215 2.39131 14.943 2.3135 14.9437C2.22975 14.9443 2.22631 14.9165 2.22881 14.8734C2.23256 14.8196 2.22975 14.7659 2.22975 14.7118C2.22881 14.6896 2.23069 14.6618 2.18444 14.6662C2.03131 14.6815 2.05975 14.6077 2.05975 14.5468C2.05975 14.5093 2.05788 14.4705 2.05975 14.4324C2.06069 14.4024 2.0485 14.3793 1.99975 14.3855C1.88037 14.3987 1.87662 14.3496 1.88225 14.2899C1.886 14.2415 1.88319 14.1943 1.88319 14.1462C1.88319 14.123 1.88038 14.0974 1.83444 14.1024C1.69475 14.1196 1.70694 14.0562 1.71069 13.9943C1.71256 13.9568 1.70787 13.919 1.71162 13.8805C1.71537 13.839 1.70131 13.8184 1.63006 13.8177C1.55319 13.8165 1.53663 13.8374 1.54006 13.8846C1.54381 13.9424 1.541 13.9984 1.541 14.0562C1.541 14.0793 1.541 14.1065 1.49412 14.1009C1.35631 14.084 1.3635 14.1449 1.36913 14.2077C1.37131 14.2496 1.36819 14.2909 1.37006 14.3321C1.37006 14.3646 1.35819 14.3905 1.30194 14.3843C1.1885 14.3709 1.186 14.418 1.19162 14.4743C1.19537 14.5155 1.18819 14.5571 1.1935 14.598C1.19912 14.6465 1.17756 14.6718 1.10194 14.664C1.03256 14.6577 1.01506 14.6815 1.02037 14.7255C1.02537 14.7662 1.01912 14.8071 1.02225 14.8493C1.02537 14.9043 1.021 14.9315 0.911312 14.9512C0.778812 14.9752 0.875375 15.0846 0.853812 15.1546C0.846 15.1837 0.828812 15.2346 0.915375 15.2249C1.01725 15.2146 1.02787 15.2512 1.02225 15.3065C1.01725 15.3568 1.02225 15.4074 1.02037 15.459C1.02037 15.4868 1.02631 15.514 1.07787 15.5074C1.201 15.4921 1.19725 15.5452 1.19256 15.6024C1.18975 15.6477 1.19444 15.6915 1.19162 15.7365C1.18819 15.7727 1.21037 15.7927 1.26287 15.7877C1.36444 15.7771 1.37475 15.8174 1.37006 15.8724C1.36537 15.9199 1.36913 15.9674 1.36913 16.0146C1.36913 16.0409 1.36631 16.0718 1.42131 16.0659C1.5535 16.0505 1.54413 16.1084 1.54225 16.169C1.53881 16.2287 1.54225 16.2899 1.54413 16.3499H1.70819C1.77256 16.3071 1.75975 16.2515 1.7635 16.1974C1.76631 16.1637 1.75569 16.1234 1.80975 16.1049C1.91475 16.0699 1.92631 16.0065 1.92819 15.9371C1.93006 15.9009 1.91725 15.8559 1.981 15.8374C2.10475 15.8002 2.12162 15.729 2.12162 15.6487C2.12162 15.6171 2.11037 15.5768 2.15444 15.5615C2.28694 15.514 2.28506 15.4327 2.286 15.3484C2.28694 15.3293 2.2785 15.3034 2.32162 15.2962C2.35287 15.3402 2.33569 15.3855 2.3435 15.4293C2.35256 15.4752 2.36694 15.5218 2.436 15.5368C2.52756 15.5574 2.53319 15.6034 2.53381 15.6571C2.53381 15.7168 2.5235 15.784 2.61319 15.8193C2.68444 15.8477 2.69912 15.8868 2.69912 15.9374C2.69819 15.9949 2.69631 16.0571 2.78256 16.088C2.85131 16.1143 2.86287 16.1509 2.86287 16.1977C2.86287 16.2518 2.85381 16.3077 2.91787 16.3502H3.08225L3.09037 16.1315C3.09131 16.1046 3.0785 16.0637 3.141 16.0687C3.28287 16.084 3.26975 16.0224 3.26694 15.9593C3.26506 15.9184 3.26787 15.8768 3.26694 15.8355C3.26506 15.8055 3.281 15.7843 3.32912 15.7887C3.4385 15.8005 3.44537 15.7565 3.43944 15.6993C3.43569 15.658 3.44131 15.6165 3.43756 15.5755C3.43475 15.5312 3.44194 15.4993 3.52225 15.509C3.58881 15.5165 3.61256 15.4952 3.60819 15.4499C3.60444 15.4087 3.61006 15.3677 3.60631 15.3262C3.60162 15.2655 3.59694 15.2084 3.72725 15.2255C3.74944 15.2287 3.77725 15.2246 3.77819 15.204C3.77819 15.1249 3.77819 15.0462 3.7735 14.9671ZM1.97225 15.2271C1.89756 15.2187 1.87506 15.244 1.88069 15.2918C1.88537 15.333 1.87975 15.3746 1.88256 15.4155C1.88912 15.4752 1.88256 15.524 1.76506 15.5112C1.71162 15.5046 1.70975 15.5321 1.70975 15.559C1.71069 15.6171 1.706 15.6737 1.71069 15.7312C1.71538 15.7771 1.68944 15.7902 1.62444 15.7902C1.55881 15.7902 1.53288 15.7765 1.53944 15.7305C1.54413 15.6962 1.54131 15.6602 1.54037 15.6259C1.53944 15.5668 1.57131 15.4912 1.416 15.5084C1.37131 15.513 1.36944 15.4852 1.36944 15.4624C1.3685 15.4149 1.36381 15.3674 1.36944 15.3199C1.376 15.258 1.36662 15.2112 1.25131 15.2271C1.24527 15.2282 1.24037 15.2279 1.23662 15.2265C1.13444 15.1627 1.21694 15.0812 1.19381 15.008C1.1835 14.9768 1.18756 14.9384 1.25756 14.9452C1.36912 14.9568 1.37506 14.9127 1.36913 14.8552C1.36444 14.8146 1.37225 14.773 1.36725 14.7315C1.36162 14.684 1.38319 14.6593 1.45787 14.6652C1.52694 14.6718 1.54475 14.6487 1.54131 14.6046C1.53787 14.5546 1.54319 14.5027 1.53944 14.4527C1.536 14.4077 1.54506 14.3843 1.62569 14.3843C1.70631 14.3843 1.71444 14.409 1.71069 14.4534C1.706 14.4937 1.7135 14.5362 1.70881 14.5768C1.70131 14.6349 1.71162 14.6771 1.82006 14.6668C1.86725 14.6624 1.88319 14.6824 1.88225 14.7137C1.88037 14.7543 1.88412 14.7959 1.88131 14.8368C1.87756 14.899 1.86537 14.9624 2.00725 14.9462C2.0485 14.9412 2.05881 14.9652 2.05881 14.9905C2.05785 15.0222 2.05785 15.0539 2.05881 15.0855C2.05881 15.1112 2.05506 15.1362 2.05881 15.1615C2.06475 15.2059 2.05069 15.2362 1.97225 15.2271ZM3.36631 15.2271C3.27288 15.2155 3.25756 15.2493 3.26475 15.3027C3.26944 15.3374 3.26475 15.3727 3.26662 15.4077C3.26944 15.4668 3.27944 15.5265 3.14663 15.5112C3.09444 15.5046 3.08787 15.5309 3.08881 15.559C3.08975 15.6171 3.086 15.6737 3.08975 15.7312C3.0935 15.7771 3.06756 15.7902 3.00256 15.7902C2.93912 15.7902 2.911 15.7771 2.91725 15.7312C2.92194 15.6924 2.91725 15.6549 2.91819 15.6171C2.921 15.5568 2.93788 15.4915 2.79569 15.509C2.75006 15.5143 2.74944 15.4859 2.7485 15.4634C2.7485 15.4159 2.74475 15.368 2.74944 15.3205C2.75569 15.2612 2.75194 15.2105 2.63287 15.2271C2.62704 15.2282 2.62256 15.2279 2.61944 15.2265C2.51819 15.1621 2.59912 15.0812 2.57569 15.008C2.56631 14.9768 2.571 14.9384 2.64194 14.9452C2.756 14.9574 2.7535 14.9084 2.74944 14.854C2.74569 14.8096 2.75194 14.7659 2.74756 14.7205C2.74381 14.6802 2.76444 14.6605 2.82412 14.6659C2.90881 14.6743 2.92444 14.6437 2.91819 14.5943C2.91412 14.5471 2.92194 14.4984 2.91725 14.4515C2.91225 14.4046 2.92819 14.3849 3.00444 14.3843C3.08725 14.3843 3.0935 14.4102 3.08975 14.454C3.08694 14.4974 3.09256 14.5427 3.08787 14.5862C3.08225 14.6396 3.09506 14.6752 3.18756 14.6662C3.24944 14.6605 3.26912 14.683 3.26631 14.7227C3.2635 14.7674 3.26912 14.8118 3.26444 14.8555C3.25975 14.9112 3.26163 14.959 3.37381 14.9455C3.42194 14.9399 3.43975 14.959 3.43787 14.9912C3.436 15.0227 3.43787 15.0546 3.43787 15.0855C3.43787 15.1143 3.436 15.1434 3.43881 15.1712C3.44162 15.2087 3.431 15.2349 3.36631 15.2271Z" fill="#CB0000"/>
<path fill-rule="evenodd" clip-rule="evenodd" d="M2.40238 4.55462C2.40238 4.58899 2.39957 4.6243 2.40426 4.65837C2.40988 4.70493 2.38113 4.71774 2.31707 4.71774C2.25426 4.71712 2.22738 4.70618 2.23113 4.65899C2.23676 4.58399 2.23582 4.50743 2.23113 4.43243C2.22926 4.38993 2.25238 4.37774 2.31113 4.37899C2.3627 4.38118 2.41051 4.37774 2.40457 4.4318C2.39863 4.47212 2.40238 4.51399 2.40238 4.55462ZM2.40238 15.9677C2.40238 15.9993 2.39863 16.0312 2.40426 16.0621C2.41145 16.114 2.37926 16.1249 2.31082 16.1256C2.23895 16.1262 2.2302 16.1031 2.23082 16.0627C2.23586 15.9904 2.23586 15.9179 2.23082 15.8456C2.22707 15.7987 2.25301 15.7865 2.31613 15.7865C2.37988 15.7871 2.40957 15.7981 2.40395 15.8452C2.39957 15.8849 2.40238 15.9271 2.40238 15.9677Z" fill="#CC0303"/>
<path fill-rule="evenodd" clip-rule="evenodd" d="M3.68311 10.7858C3.61968 10.7936 3.60561 10.769 3.60842 10.7308C3.61217 10.689 3.60936 10.6471 3.60936 10.6071C3.60936 10.584 3.60843 10.5555 3.56218 10.5611C3.40499 10.579 3.43843 10.5021 3.44218 10.443C3.44374 10.3936 3.44217 10.354 3.3428 10.3652C3.28936 10.3718 3.27155 10.3533 3.27436 10.3168C3.27624 10.2721 3.2753 10.2277 3.27436 10.1833C3.27436 10.1599 3.27624 10.1343 3.32342 10.1402C3.45936 10.1577 3.44686 10.0946 3.43936 10.0377C3.4328 9.97771 3.43499 9.92896 3.55592 9.94365C3.61124 9.95021 3.60936 9.91896 3.60936 9.89334C3.60936 9.85177 3.61217 9.81052 3.60842 9.76959C3.60655 9.73459 3.62155 9.71209 3.67686 9.7199C3.77842 9.73146 3.78874 9.6924 3.78436 9.63771C3.77936 9.58302 3.78249 9.52927 3.78249 9.47552C3.78249 9.40552 3.7803 9.33552 3.78343 9.26552C3.7853 9.22459 3.76061 9.21302 3.70186 9.2099C3.59905 9.20427 3.61311 9.24896 3.60655 9.29459C3.6028 9.32427 3.64999 9.38396 3.55061 9.37709C3.44186 9.37052 3.43436 9.40927 3.43843 9.46771C3.43936 9.49865 3.47311 9.55521 3.3753 9.5474C3.2753 9.53959 3.26061 9.57334 3.26686 9.6299C3.27155 9.67396 3.26499 9.71959 3.26874 9.76302C3.27155 9.80771 3.26405 9.83427 3.1828 9.83365C3.10999 9.8324 3.08561 9.8174 3.0903 9.76771C3.09592 9.71646 3.08936 9.66584 3.09218 9.6149C3.09593 9.57021 3.08311 9.5399 3.00499 9.54896C2.92311 9.55802 2.91467 9.5249 2.9203 9.48177C2.92593 9.42302 2.93811 9.36021 2.80186 9.37865C2.75749 9.38521 2.74967 9.36177 2.75061 9.33771C2.75155 9.31521 2.74592 9.29209 2.75155 9.27084C2.77186 9.18334 2.7328 9.13865 2.59342 9.1549C2.56092 9.15896 2.50436 9.16677 2.49717 9.13615C2.47749 9.05521 2.43905 8.9374 2.50405 8.89802C2.60717 8.83615 2.56624 8.77646 2.57405 8.7149C2.58405 8.64302 2.58061 8.56896 2.57592 8.49615C2.57249 8.44646 2.58686 8.41521 2.67217 8.42459C2.74405 8.43209 2.75592 8.40334 2.75155 8.3624C2.7478 8.32771 2.75405 8.29146 2.74967 8.25771C2.74405 8.21177 2.7728 8.19896 2.83686 8.19834C2.9053 8.19771 2.92374 8.21584 2.9203 8.25896C2.91639 8.32265 2.91639 8.38652 2.9203 8.45021C2.92593 8.50584 2.92405 8.55115 2.81186 8.53834C2.7478 8.53021 2.74342 8.56302 2.75155 8.5924C2.7728 8.66771 2.68686 8.7924 2.79999 8.8099C2.94124 8.83209 2.91842 8.87771 2.9203 8.93584V9.0499C2.91936 9.07802 2.92592 9.1049 2.97655 9.0999C3.0978 9.08646 3.09686 9.13834 3.09218 9.19677C3.08936 9.23459 3.09405 9.2724 3.0903 9.31052C3.08655 9.35521 3.09686 9.38146 3.17717 9.38084C3.24999 9.38084 3.27436 9.36365 3.26968 9.31427C3.26405 9.26021 3.26874 9.20646 3.26874 9.15271C3.26874 9.12552 3.26968 9.09615 3.32342 9.10177C3.45936 9.11646 3.44311 9.05396 3.4403 8.99615C3.43842 8.95521 3.44217 8.91302 3.43936 8.87302C3.43842 8.84084 3.44374 8.81334 3.50374 8.82084C3.60561 8.83302 3.61561 8.7924 3.6103 8.73802C3.60655 8.69677 3.61311 8.65584 3.60842 8.61427C3.6028 8.5624 3.61311 8.52584 3.70842 8.53584C3.74499 8.54021 3.78311 8.53896 3.78217 8.50021C3.77999 8.43084 3.78217 8.36115 3.77999 8.29084C3.77999 8.27021 3.76436 8.25177 3.73093 8.25552C3.58593 8.27396 3.60905 8.2049 3.60905 8.14552C3.60999 8.10427 3.60718 8.06302 3.60999 8.02177C3.61092 7.99052 3.59499 7.97177 3.5478 7.9774C3.43311 7.9899 3.43499 7.93959 3.43905 7.88521C3.44342 7.83771 3.43999 7.79021 3.43999 7.74271C3.43999 7.71959 3.44186 7.69146 3.39436 7.69709C3.23999 7.71334 3.26842 7.6399 3.26842 7.57927C3.26842 7.54115 3.26655 7.50271 3.26842 7.4649C3.26936 7.43115 3.25842 7.40584 3.20092 7.41302C3.08905 7.42646 3.08342 7.38084 3.08999 7.32427C3.09467 7.28209 3.08905 7.24115 3.09186 7.1999C3.09467 7.1574 3.08905 7.12927 3.00655 7.12927C2.92717 7.12927 2.91499 7.15271 2.91936 7.19802C2.92311 7.25177 2.91936 7.30552 2.9203 7.35959C2.92124 7.39052 2.9203 7.42052 2.85811 7.41271C2.74374 7.39802 2.74624 7.4474 2.74967 7.5024C2.75405 7.55052 2.74874 7.59709 2.75155 7.64552C2.75249 7.68115 2.73467 7.70209 2.6803 7.69552C2.57686 7.6824 2.57092 7.72584 2.57592 7.77959C2.57967 7.82615 2.57592 7.87427 2.57686 7.92209C2.5778 7.95521 2.56561 7.98146 2.5103 7.97552C2.39655 7.96427 2.39561 8.01209 2.40092 8.0674C2.40374 8.10615 2.39905 8.14396 2.40092 8.18177C2.40374 8.22177 2.40749 8.25334 2.3203 8.25365C2.2303 8.2549 2.22686 8.22552 2.22936 8.1799C2.23405 8.12865 2.2303 8.07771 2.23124 8.02709C2.23124 8.00052 2.23405 7.97115 2.17874 7.97771C2.0603 7.99084 2.05436 7.9424 2.0603 7.88115C2.06405 7.83771 2.06124 7.7924 2.06124 7.74865C2.06124 7.72209 2.06217 7.6899 2.00874 7.6974C1.86217 7.71427 1.88374 7.64552 1.88467 7.58677V7.4624C1.88467 7.43584 1.88186 7.40677 1.82936 7.41365C1.70999 7.42834 1.70249 7.38146 1.71092 7.32084C1.71467 7.28552 1.7128 7.25052 1.71186 7.21584C1.71092 7.17302 1.73092 7.12709 1.62311 7.12896C1.52217 7.13052 1.54311 7.17271 1.54217 7.21177C1.54134 7.26261 1.54134 7.31323 1.54217 7.36365C1.54311 7.39146 1.53967 7.41927 1.48686 7.4124C1.36811 7.39771 1.36342 7.44552 1.36905 7.50677C1.37311 7.55396 1.36905 7.60177 1.36999 7.64896C1.37092 7.67927 1.35624 7.70177 1.30842 7.69521C1.18499 7.68084 1.1878 7.73365 1.1928 7.79209C1.19561 7.83334 1.18936 7.87459 1.19374 7.91584C1.19749 7.95927 1.1778 7.98302 1.10936 7.97646C1.03249 7.96896 1.01592 7.99521 1.02155 8.04209C1.02655 8.08365 1.01967 8.12459 1.02342 8.16584C1.02749 8.22021 1.03186 8.26865 0.915612 8.25584C0.841862 8.24865 0.845612 8.29052 0.85405 8.31927C0.877175 8.39115 0.782175 8.50677 0.901237 8.52802C1.0253 8.54959 1.02717 8.58115 1.02342 8.64334C1.0203 8.68459 1.02342 8.72615 1.02155 8.76709C1.0203 8.79959 1.02749 8.82615 1.08717 8.81959C1.18592 8.80802 1.20092 8.84521 1.19467 8.90115C1.18874 8.94834 1.19467 8.99615 1.1928 9.04396C1.19186 9.07615 1.19936 9.10459 1.2578 9.0999C1.36467 9.0899 1.3778 9.13021 1.37092 9.18959C1.3653 9.23052 1.37311 9.2724 1.36905 9.31334C1.36436 9.35896 1.3803 9.38052 1.45686 9.38115C1.53967 9.38115 1.54561 9.3549 1.5428 9.31084C1.53936 9.26334 1.54467 9.21584 1.54092 9.16802C1.53811 9.12334 1.54561 9.09209 1.62717 9.10021C1.7078 9.10834 1.71592 9.07521 1.71217 9.03177C1.70842 8.99052 1.71592 8.94802 1.7103 8.90802C1.7028 8.84896 1.71311 8.81021 1.82155 8.81896C1.90624 8.82552 1.88967 8.77334 1.88092 8.74552C1.85967 8.67584 1.9528 8.56521 1.83186 8.54646C1.70749 8.52677 1.70749 8.49334 1.70999 8.43115C1.71315 8.3738 1.71315 8.31631 1.70999 8.25896C1.70717 8.21552 1.72624 8.19709 1.79467 8.19771C1.85749 8.19834 1.88842 8.20927 1.88342 8.25646C1.88061 8.29459 1.88436 8.33334 1.88249 8.37115C1.88061 8.40365 1.88999 8.43052 1.94811 8.42334C2.05905 8.41115 2.06561 8.45552 2.05999 8.51334C2.0553 8.57302 2.05905 8.63365 2.05999 8.69396C2.05999 8.74802 2.03155 8.83115 2.06905 8.85021C2.18967 8.91177 2.12686 8.98959 2.14436 9.05959C2.16624 9.13896 2.11561 9.16896 2.00342 9.15584C1.90686 9.1449 1.86905 9.17302 1.88124 9.2399C1.88686 9.27146 1.8803 9.30334 1.88311 9.3349C1.88592 9.36802 1.86436 9.38427 1.81842 9.37927C1.70717 9.36552 1.70936 9.4149 1.70936 9.47021C1.70936 9.49802 1.74686 9.55365 1.65811 9.54615C1.53811 9.53677 1.53624 9.58209 1.54155 9.64177C1.5453 9.68646 1.53874 9.73115 1.54342 9.77459C1.54999 9.82396 1.51686 9.8324 1.45467 9.83302C1.38811 9.83365 1.36592 9.81802 1.36967 9.77365C1.37374 9.71584 1.36967 9.65927 1.37155 9.60177C1.37155 9.56865 1.36155 9.54302 1.30342 9.54896C1.19249 9.56302 1.18936 9.51677 1.19155 9.45959C1.19342 9.43115 1.22186 9.3749 1.13936 9.38177C0.999987 9.39334 1.01717 9.33396 1.02405 9.27771C1.02905 9.23052 1.01124 9.20927 0.93405 9.21021C0.863737 9.21084 0.851862 9.23084 0.8528 9.27334C0.854675 9.40021 0.855612 9.5274 0.8528 9.65427C0.851237 9.70115 0.864675 9.7274 0.94155 9.71927C1.0103 9.71084 1.02874 9.73396 1.02405 9.77771C1.01905 9.81959 1.02405 9.8599 1.02217 9.90177C1.02217 9.92615 1.03061 9.94927 1.07405 9.94459C1.22249 9.92584 1.19561 9.99834 1.1928 10.054C1.18936 10.1068 1.18936 10.1518 1.29624 10.1393C1.34374 10.1336 1.36092 10.1515 1.35905 10.183C1.35801 10.2305 1.35801 10.2782 1.35905 10.3261C1.35999 10.3536 1.34374 10.3696 1.3028 10.3649C1.17405 10.3499 1.18936 10.4115 1.19342 10.464C1.19624 10.5202 1.20499 10.5758 1.08061 10.5608C1.02999 10.5543 1.02155 10.5802 1.02155 10.608C1.02342 10.6458 1.01842 10.6846 1.02342 10.7227C1.02999 10.7693 1.00967 10.7946 0.933425 10.7855C0.86405 10.7771 0.850612 10.8015 0.852175 10.8452C0.855092 10.9756 0.854779 11.1059 0.851237 11.2361C0.850612 11.2833 0.879987 11.2915 0.940925 11.2943C1.04249 11.2986 1.01592 11.2508 1.02342 11.213C1.03092 11.1799 0.981862 11.1174 1.08999 11.1258C1.19842 11.1349 1.19561 11.0915 1.19561 11.0402C1.19561 11.0036 1.16499 10.9474 1.26936 10.9568C1.36186 10.9643 1.37686 10.9324 1.37092 10.8783C1.36624 10.8349 1.37311 10.7896 1.36999 10.7455C1.3653 10.6986 1.37217 10.669 1.46155 10.6702C1.54749 10.6721 1.54405 10.7033 1.54217 10.743C1.54124 10.794 1.54499 10.8452 1.54124 10.8955C1.5378 10.9386 1.55436 10.9636 1.62405 10.9552C1.71749 10.9443 1.71186 10.9855 1.71374 11.0293C1.71467 11.0602 1.68561 11.1208 1.74499 11.1183C1.9403 11.1099 1.88467 11.203 1.88186 11.2683C1.87905 11.3318 1.9078 11.3536 1.99842 11.3499C2.04436 11.3465 2.09874 11.3324 2.13874 11.3649C2.15374 11.3758 2.15092 11.6155 2.13405 11.618C2.01405 11.6361 2.06655 11.7021 2.06217 11.7471C2.05592 11.8361 2.05749 11.9258 2.06124 12.0143C2.06405 12.0621 2.04436 12.0874 1.97061 12.079C1.89124 12.0705 1.87905 12.1018 1.88374 12.1471C1.88749 12.1786 1.88186 12.2105 1.88467 12.2427C1.88749 12.2836 1.8728 12.3055 1.80249 12.3068C1.72717 12.3068 1.70811 12.2871 1.70999 12.2396C1.71427 12.1665 1.71427 12.0933 1.70999 12.0202C1.70811 11.979 1.72811 11.9636 1.78749 11.9649C1.82311 11.9661 1.87999 11.9815 1.8828 11.9352C1.88565 11.8621 1.88565 11.7889 1.8828 11.7158C1.88186 11.6858 1.84999 11.6808 1.8153 11.6846C1.71311 11.6968 1.70717 11.6543 1.71124 11.6002C1.71499 11.553 1.7103 11.5052 1.71311 11.458C1.71405 11.4255 1.70624 11.3971 1.64811 11.404C1.5453 11.4155 1.53655 11.3755 1.54155 11.3211C1.5453 11.2796 1.53999 11.2386 1.54342 11.1974C1.54811 11.1493 1.53874 11.1215 1.45092 11.1221C1.36499 11.123 1.36842 11.1549 1.3703 11.1946C1.37124 11.2452 1.36936 11.2968 1.37124 11.3471C1.37124 11.3796 1.36405 11.4074 1.30499 11.4018C1.19655 11.3924 1.1853 11.4343 1.19311 11.493C1.1978 11.534 1.18967 11.5755 1.19499 11.6168C1.19874 11.6618 1.18749 11.6921 1.10811 11.6836C1.0278 11.674 1.01842 11.7068 1.02217 11.7502C1.02624 11.7893 1.02217 11.8277 1.0228 11.8649C1.02717 11.9236 1.04061 11.9861 0.905612 11.9668C0.882487 11.9643 0.855612 11.968 0.855612 11.9886C0.854571 12.0682 0.855508 12.1475 0.858425 12.2265C0.858737 12.2468 0.887487 12.2515 0.909362 12.2483C1.0328 12.2315 1.02749 12.2858 1.02342 12.3433C1.0203 12.3905 1.02342 12.438 1.02155 12.4861C1.02155 12.5124 1.03249 12.5318 1.0753 12.5268C1.21155 12.5096 1.19561 12.573 1.19374 12.6318C1.19186 12.6761 1.19374 12.7202 1.19374 12.7643C1.1928 12.7908 1.2028 12.8127 1.24624 12.8071C1.39092 12.7896 1.37092 12.8574 1.36999 12.9174C1.36999 12.9583 1.37092 13.0005 1.36999 13.0411C1.36999 13.0677 1.37092 13.0977 1.42499 13.0915C1.56186 13.073 1.54499 13.1355 1.54217 13.1933C1.53967 13.2308 1.54499 13.2693 1.54124 13.308C1.53655 13.3536 1.55217 13.3749 1.62936 13.3755C1.71624 13.3761 1.71374 13.344 1.7128 13.3027C1.70999 13.2499 1.7128 13.1952 1.71186 13.1411C1.71092 13.1133 1.71374 13.0852 1.76624 13.0927C1.90405 13.1105 1.88655 13.0471 1.88467 12.9902C1.8828 12.9449 1.88561 12.9002 1.88467 12.8558C1.88374 12.8255 1.8978 12.8033 1.94561 12.8096C2.0678 12.824 2.06592 12.7715 2.06124 12.713C2.05749 12.6683 2.06124 12.6246 2.06124 12.5802C2.06124 12.5524 2.06405 12.523 2.11592 12.5296C2.23655 12.5427 2.23749 12.4933 2.23124 12.434C2.22874 12.3968 2.23405 12.3583 2.2303 12.3205C2.22686 12.2774 2.2303 12.2499 2.31405 12.2499C2.3928 12.2511 2.40561 12.2718 2.4028 12.3177C2.39811 12.3711 2.4028 12.4255 2.40092 12.4793C2.39999 12.5102 2.41186 12.5321 2.46061 12.5271C2.58311 12.514 2.58124 12.5674 2.57749 12.6249C2.57374 12.6696 2.57749 12.714 2.57655 12.7583C2.57561 12.7865 2.5803 12.8143 2.63217 12.8077C2.76905 12.7908 2.75374 12.8533 2.7503 12.9115C2.74842 12.9555 2.7503 13.0008 2.7503 13.0449C2.75124 13.0674 2.74842 13.0955 2.79592 13.0905C2.93436 13.0727 2.92467 13.1352 2.91999 13.1968C2.91811 13.2346 2.9228 13.273 2.91999 13.3118C2.91467 13.3533 2.92811 13.3746 2.99936 13.3752C3.07436 13.3752 3.09655 13.3561 3.09186 13.3083C3.08904 13.2542 3.08904 13.2 3.09186 13.1458C3.09186 13.1218 3.08374 13.0871 3.13874 13.0927C3.29061 13.1086 3.27124 13.0399 3.26842 12.9765C3.26655 12.9358 3.26936 12.8936 3.26842 12.8527C3.26655 12.8211 3.28624 12.8021 3.33249 12.8086C3.44686 12.8218 3.44436 12.773 3.44092 12.718C3.43717 12.6736 3.4428 12.6286 3.43905 12.5843C3.43718 12.5468 3.44874 12.5202 3.5128 12.5274C3.61249 12.5386 3.61249 12.4965 3.60999 12.4477C3.60624 12.4033 3.6128 12.3586 3.60811 12.3149C3.60342 12.2683 3.61936 12.2415 3.69686 12.2483C3.73155 12.2508 3.77811 12.2533 3.77999 12.2168C3.78405 12.144 3.78093 12.0702 3.78093 11.9974C3.78093 11.9643 3.74686 11.963 3.71467 11.9665C3.61374 11.978 3.6028 11.9396 3.60811 11.884C3.6128 11.8333 3.60999 11.7818 3.60905 11.7311C3.60811 11.7102 3.61186 11.6799 3.5653 11.6846C3.40999 11.7033 3.43905 11.629 3.43999 11.5686C3.43999 11.5305 3.43905 11.493 3.43999 11.4552C3.44093 11.4268 3.43717 11.3986 3.38499 11.4036C3.26561 11.4165 3.26124 11.368 3.26749 11.3074C3.27124 11.2702 3.26561 11.2321 3.26936 11.1933C3.27124 11.1502 3.26467 11.1233 3.18436 11.1227C3.09561 11.1205 3.08717 11.1502 3.08999 11.1971C3.09467 11.248 3.08905 11.299 3.09186 11.3496C3.09374 11.384 3.08092 11.408 3.02405 11.4021C2.91999 11.3908 2.91405 11.433 2.91905 11.4868C2.9228 11.5374 2.91811 11.5877 2.91999 11.6383C2.92186 11.6708 2.90592 11.6877 2.85874 11.6824C2.75936 11.6708 2.74217 11.7074 2.74936 11.7636C2.75395 11.8018 2.75395 11.8398 2.74936 11.8777C2.74217 11.9355 2.74936 11.9796 2.85967 11.9655C2.91061 11.9599 2.92092 11.9802 2.91999 12.0111C2.91905 12.093 2.91811 12.1758 2.91999 12.2583C2.92186 12.2986 2.89217 12.3058 2.84374 12.304C2.7978 12.3021 2.74655 12.3102 2.7503 12.2593C2.75217 12.2246 2.74655 12.1886 2.75124 12.1543C2.7578 12.1015 2.74342 12.0671 2.65061 12.078C2.58499 12.0852 2.57592 12.0577 2.57592 12.0211C2.57759 11.9164 2.5779 11.8111 2.57686 11.7055C2.57592 11.6846 2.58061 11.648 2.56655 11.644C2.42155 11.5986 2.50936 11.5121 2.48905 11.4468C2.46592 11.3693 2.51124 11.3333 2.6278 11.3477C2.73717 11.3611 2.76467 11.3243 2.75155 11.2558C2.74592 11.229 2.75155 11.199 2.75061 11.1708C2.74874 11.1418 2.75749 11.118 2.80936 11.1246C2.93717 11.1402 2.92311 11.0805 2.9203 11.0268C2.91842 10.989 2.90811 10.9452 2.9978 10.9555C3.0828 10.9643 3.09749 10.933 3.09218 10.884C3.08842 10.8393 3.09218 10.7949 3.09124 10.7502C3.0903 10.7093 3.07842 10.6708 3.17624 10.6696C3.28061 10.6683 3.26967 10.7099 3.26874 10.7546C3.26686 10.8052 3.26874 10.8561 3.26874 10.9065C3.2678 10.9358 3.27592 10.9605 3.32686 10.954C3.4528 10.9383 3.44218 10.994 3.44218 11.0502C3.44218 11.0771 3.41561 11.1277 3.48811 11.1211C3.61967 11.1108 3.6178 11.1627 3.60936 11.2233C3.6028 11.2677 3.61592 11.2936 3.6953 11.2943C3.77467 11.2943 3.78499 11.2677 3.78311 11.224C3.77978 11.1031 3.78009 10.9824 3.78405 10.8618C3.78593 10.8093 3.77749 10.7727 3.68311 10.7846M2.99405 10.3643C2.90155 10.3543 2.92217 10.4024 2.9203 10.4374C2.91686 10.499 2.95499 10.5793 2.79061 10.5608C2.75405 10.5558 2.75155 10.5818 2.75061 10.6015C2.75061 10.6327 2.74592 10.6643 2.75155 10.6955C2.76467 10.7643 2.73561 10.7993 2.62874 10.7846C2.51592 10.7699 2.4553 10.803 2.48999 10.8802C2.53905 10.9893 2.40217 11.0608 2.3928 11.1586C2.38874 11.1852 2.32061 11.1702 2.28061 11.1736C2.23499 11.1755 2.24499 11.1477 2.22905 11.1308C2.13999 11.0321 2.14592 10.9252 2.1428 10.8152C2.14092 10.7593 2.06155 10.783 2.0228 10.7861C1.90624 10.7958 1.87092 10.7646 1.88217 10.6871C1.89155 10.6224 1.92217 10.5421 1.74686 10.5521C1.68405 10.5568 1.71749 10.4965 1.71405 10.4658C1.70749 10.4121 1.73905 10.3558 1.59624 10.3593C1.48811 10.3618 1.5753 10.2821 1.54624 10.2555C1.54342 10.189 1.51405 10.1215 1.66342 10.1349C1.74155 10.1415 1.70874 10.0902 1.7103 10.0643C1.71749 10.0033 1.67686 9.92365 1.84217 9.94052C1.88686 9.94552 1.88311 9.91334 1.88405 9.89146C1.88499 9.86052 1.88999 9.82802 1.88311 9.79646C1.86905 9.72709 1.91561 9.70521 2.00592 9.71646C2.11842 9.7299 2.1803 9.69896 2.14467 9.62177C2.09499 9.51334 2.23249 9.44177 2.23842 9.3449C2.2403 9.31334 2.30999 9.33146 2.3478 9.32802C2.38842 9.3249 2.38749 9.34802 2.40436 9.36709C2.48686 9.46677 2.49499 9.57302 2.49124 9.68427C2.48936 9.73459 2.56155 9.7174 2.59811 9.71427C2.72436 9.70271 2.7678 9.73459 2.7528 9.82209C2.74405 9.88365 2.71811 9.9574 2.88436 9.94709C2.95186 9.94334 2.91561 10.0086 2.91717 10.0415C2.92155 10.098 2.90842 10.1527 3.03342 10.1371C3.07592 10.1315 3.08686 10.1518 3.08592 10.1774C3.08499 10.2152 3.08311 10.254 3.0878 10.2921C3.09217 10.3399 3.08186 10.373 2.99405 10.3633" fill="#CB0000"/>
<path fill-rule="evenodd" clip-rule="evenodd" d="M2.83081 13.6081C2.85769 13.499 2.69863 13.4334 2.74425 13.3334C2.74488 13.3306 2.73363 13.3215 2.72706 13.3215C2.63925 13.3156 2.65956 13.2671 2.6655 13.2349C2.67925 13.1606 2.63644 13.1449 2.53613 13.1449C2.43644 13.1465 2.3805 13.1574 2.39831 13.2381C2.40488 13.2668 2.42394 13.3099 2.338 13.314C2.25675 13.3171 2.21613 13.3037 2.22956 13.2421C2.24644 13.1727 2.218 13.1434 2.10331 13.1449C1.993 13.1449 1.95675 13.1681 1.97081 13.2409C1.9755 13.2618 1.97175 13.3009 1.95956 13.3027C1.85081 13.3246 1.89238 13.3865 1.883 13.4337C1.88019 13.4493 1.87644 13.4662 1.86425 13.4774C1.768 13.5584 1.76706 13.6365 1.86519 13.7156C1.88644 13.7321 1.88644 13.7512 1.88206 13.7687C1.85925 13.8643 2.02988 13.9271 1.97581 14.0287C1.97488 14.0309 1.98706 14.0406 1.99175 14.0406C2.06019 14.0431 2.13113 14.0521 2.19519 14.0424C2.26175 14.0321 2.23175 13.9827 2.22769 13.9537C2.21488 13.8731 2.28613 13.869 2.36081 13.8831C2.43425 13.8971 2.40081 13.9487 2.39706 13.9812C2.38675 14.064 2.46738 14.0452 2.53144 14.0446C2.593 14.0446 2.67925 14.0643 2.66363 13.9824C2.64581 13.8874 2.79894 13.8215 2.75644 13.7224C2.75644 13.7209 2.76175 13.7168 2.76613 13.7159C2.878 13.6996 2.81831 13.6371 2.83081 13.6081ZM2.23613 13.6002C2.19331 13.6509 2.12675 13.694 2.12581 13.7593C2.12581 13.7631 2.068 13.7674 2.06894 13.7527C2.07113 13.6956 2.02956 13.6606 1.97644 13.6218C1.95769 13.6084 1.94675 13.5543 2.00894 13.5421C2.06519 13.5306 2.05675 13.504 2.05863 13.4756C2.05956 13.4543 2.05425 13.429 2.10425 13.4299C2.15019 13.4318 2.15394 13.4599 2.14425 13.4784C2.10831 13.5424 2.26269 13.5374 2.23613 13.6002ZM2.55956 13.7552C2.56144 13.7674 2.49488 13.7693 2.48925 13.7409C2.48206 13.6974 2.48363 13.6599 2.41425 13.6327C2.3905 13.6231 2.38363 13.5634 2.42519 13.549C2.48738 13.5293 2.48394 13.5006 2.4855 13.4656C2.48738 13.4318 2.54425 13.4159 2.55331 13.4371C2.57613 13.4962 2.62175 13.5465 2.68331 13.5893C2.64269 13.6546 2.55425 13.6874 2.55956 13.7552ZM2.83081 6.92993C2.86363 6.81399 2.70019 6.74493 2.743 6.64306C2.74363 6.64056 2.73144 6.63274 2.72394 6.63212C2.64581 6.62774 2.66113 6.58556 2.66581 6.55399C2.67675 6.48306 2.64988 6.45431 2.53456 6.4565C2.42956 6.45775 2.38081 6.47337 2.40019 6.55024C2.41363 6.60618 2.38613 6.63274 2.29644 6.62524C2.17331 6.61618 2.23425 6.55087 2.23425 6.51524C2.23425 6.44493 2.17363 6.45524 2.11738 6.46087C2.06425 6.46618 1.96894 6.42306 1.97081 6.51274C1.97175 6.54931 1.99956 6.59931 1.95206 6.62024C1.82675 6.67837 1.87831 6.78181 1.80613 6.85806C1.70988 6.95899 1.92644 7.05681 1.89113 7.17368C1.89019 7.17774 1.903 7.18524 1.90925 7.18524C1.99831 7.19181 1.97613 7.24056 1.96956 7.27243C1.95456 7.34806 2.00113 7.36149 2.09925 7.36024C2.18988 7.35774 2.2505 7.35587 2.23206 7.27493C2.22488 7.24056 2.20363 7.19274 2.30831 7.19087C2.41144 7.18868 2.39706 7.23087 2.40175 7.27493C2.40456 7.30243 2.37081 7.34024 2.43613 7.35743C2.56331 7.38899 2.65675 7.34681 2.66363 7.25462C2.6655 7.23587 2.66644 7.20337 2.6755 7.20149C2.78206 7.18243 2.74238 7.12493 2.74925 7.07962C2.75269 7.06056 2.73925 7.03337 2.768 7.02806C2.87675 7.01118 2.81894 6.95337 2.83081 6.93087M2.12769 7.06931C2.12769 7.07681 2.06644 7.08149 2.0655 7.05899C2.06081 7.01118 2.05394 6.97118 1.98144 6.94587C1.9655 6.93993 1.96456 6.88212 1.97831 6.87649C2.04863 6.85056 2.06519 6.81306 2.06331 6.76306C2.06238 6.73712 2.12269 6.74181 2.12363 6.74587C2.12988 6.80993 2.19019 6.85462 2.24894 6.90556C2.19863 6.96118 2.12831 7.00399 2.12769 7.06931ZM2.59363 6.97618C2.57706 6.98306 2.57988 7.01743 2.57706 7.03837C2.57519 7.06056 2.563 7.07368 2.53456 7.07618C2.52113 7.07368 2.5105 7.07368 2.50456 7.06962C2.45894 7.03806 2.51581 6.98118 2.42519 6.95181C2.37706 6.93524 2.44519 6.87806 2.45988 6.84118C2.528 6.67962 2.52081 6.71368 2.6055 6.83993C2.65113 6.90743 2.70613 6.93024 2.59363 6.97618Z" fill="#CB0000"/>
<path fill-rule="evenodd" clip-rule="evenodd" d="M1.45589 6.90502C1.48777 6.81189 1.31277 6.74908 1.36339 6.64752C1.36527 6.64502 1.35527 6.63564 1.3487 6.63502C1.24589 6.62533 1.27652 6.56971 1.28308 6.53158C1.29589 6.44814 1.21995 6.46158 1.14777 6.45908C1.06527 6.45596 1.0062 6.45783 1.01902 6.53471C1.03308 6.62408 0.889015 6.68814 0.930265 6.78439C0.931203 6.78502 0.924953 6.78971 0.920578 6.78971C0.816515 6.80377 0.862765 6.86127 0.85089 6.90221C0.822765 7.00221 0.988703 7.06971 0.93964 7.17221C1.05433 7.19658 1.01527 7.26346 1.02027 7.31721C1.02214 7.33346 1.02027 7.35346 1.04777 7.35533C1.11683 7.35783 1.18808 7.36564 1.25152 7.35283C1.30995 7.34064 1.26902 7.29252 1.27902 7.26002C1.28652 7.23908 1.28495 7.20002 1.29589 7.19877C1.40245 7.18439 1.36152 7.12783 1.36964 7.08564C1.37277 7.06783 1.37183 7.03502 1.38089 7.03314C1.48777 7.01314 1.4487 6.95533 1.45589 6.90502ZM1.24308 6.96189C1.18558 6.97439 1.19433 7.00064 1.19245 7.02877C1.19152 7.05064 1.1962 7.07627 1.14777 7.07439C1.10089 7.07252 1.09652 7.04471 1.10714 7.02533C1.14339 6.96189 0.986828 6.96846 1.0137 6.90471C1.06152 6.85658 1.12214 6.81064 1.12558 6.74627C1.1262 6.74127 1.18277 6.73721 1.18183 6.75252C1.18089 6.80877 1.22089 6.84471 1.27433 6.88283C1.29339 6.89658 1.30464 6.95033 1.24308 6.96189ZM1.4362 13.4925C1.33839 13.475 1.37745 13.4244 1.36995 13.3847C1.36433 13.3638 1.38308 13.3291 1.35152 13.3244C1.24589 13.3078 1.27839 13.2522 1.28308 13.211C1.2912 13.1291 1.21277 13.1481 1.14964 13.1475C1.08589 13.1475 1.00308 13.1303 1.02027 13.2116C1.03964 13.3053 0.88589 13.3716 0.930265 13.4703C0.931203 13.4716 0.925578 13.4753 0.921515 13.476C0.810578 13.4928 0.865578 13.5556 0.84964 13.5997C0.85214 13.6306 0.84089 13.6838 0.860265 13.6894C0.964953 13.7203 0.931515 13.7791 0.937453 13.8303C0.938078 13.8425 0.941203 13.8647 0.94714 13.8653C1.05745 13.8803 1.02433 13.9406 1.0187 13.9841C1.00933 14.0603 1.08152 14.0475 1.1412 14.0438C1.19714 14.0394 1.28964 14.0753 1.28214 13.9863C1.27902 13.9513 1.25152 13.8966 1.3062 13.8828C1.3737 13.8644 1.36589 13.8378 1.36964 13.8035C1.3737 13.7635 1.34089 13.7135 1.43839 13.6972C1.46995 13.6931 1.46714 13.4981 1.4362 13.4925ZM1.27464 13.6269C1.20089 13.6556 1.18777 13.6969 1.18495 13.7488C1.18402 13.7669 1.12058 13.765 1.12152 13.7535C1.12808 13.6878 1.04808 13.6528 1.0087 13.6028C1.03995 13.5419 1.13183 13.505 1.12152 13.4378C1.13252 13.4333 1.14429 13.4308 1.1562 13.4306C1.18683 13.4306 1.19245 13.4469 1.19152 13.4631C1.18964 13.5025 1.19339 13.5335 1.26277 13.55C1.29902 13.5591 1.29245 13.62 1.27464 13.6269ZM3.78308 6.91127C3.77464 6.87752 3.80902 6.81908 3.76339 6.80658C3.66652 6.78127 3.70339 6.73252 3.69495 6.69002C3.6912 6.67127 3.68995 6.63877 3.68183 6.63752C3.57839 6.62346 3.60526 6.56721 3.61152 6.52596C3.62464 6.43627 3.53651 6.46314 3.47089 6.45846C3.39152 6.45283 3.33933 6.46127 3.35277 6.53158C3.36808 6.62158 3.22027 6.68439 3.25808 6.78033C3.25933 6.78377 3.23714 6.79002 3.2262 6.79596C3.17839 6.82439 3.14808 6.99408 3.19589 7.00783C3.29027 7.03252 3.26245 7.07939 3.26777 7.12346C3.26964 7.14189 3.27058 7.17439 3.27964 7.17627C3.37964 7.19158 3.35933 7.24627 3.35214 7.28814C3.33495 7.37752 3.42495 7.35221 3.49058 7.35658C3.56902 7.36221 3.62308 7.35596 3.60995 7.28471C3.59308 7.19439 3.74339 7.13096 3.70058 7.03439C3.70058 7.03439 3.7062 7.02846 3.71089 7.02846C3.80995 7.01283 3.77652 6.95783 3.78308 6.91127ZM3.60651 6.92939C3.5712 6.96189 3.50277 7.00502 3.50652 7.07127C3.50652 7.07127 3.44901 7.07877 3.45089 7.06346C3.4537 7.00564 3.40495 6.96971 3.35839 6.92658C3.33964 6.90783 3.33277 6.86064 3.4112 6.84908C3.48902 6.83689 3.38152 6.74002 3.48901 6.74439C3.5712 6.74939 3.48183 6.83439 3.55339 6.84908C3.61027 6.86002 3.61214 6.88033 3.60651 6.92939ZM3.7612 13.4956C3.6762 13.4775 3.69933 13.4347 3.69276 13.3969C3.68058 13.3169 3.56308 13.2553 3.60401 13.1656C3.60495 13.1631 3.57714 13.1528 3.56027 13.15C3.41308 13.1247 3.36027 13.1513 3.35214 13.2541C3.35152 13.2719 3.34964 13.3038 3.33808 13.3066C3.23245 13.326 3.27339 13.3838 3.26683 13.4285C3.26308 13.4466 3.27339 13.4747 3.24464 13.4791C3.13714 13.4966 3.19214 13.5547 3.17527 13.5938C3.18808 13.6313 3.14745 13.6869 3.19933 13.7003C3.28995 13.7244 3.25964 13.7691 3.26683 13.8081C3.26964 13.8275 3.26402 13.86 3.27402 13.8619C3.37589 13.8853 3.35651 13.9422 3.3512 13.9922C3.34401 14.0731 3.42745 14.0456 3.48058 14.0463C3.5362 14.0463 3.61745 14.0706 3.60995 13.9906C3.60526 13.955 3.57933 13.896 3.62995 13.886C3.71276 13.8675 3.68933 13.8319 3.69308 13.7978C3.69589 13.7591 3.6762 13.7166 3.76152 13.7003C3.79527 13.6944 3.7937 13.5019 3.7612 13.4956ZM3.51339 13.7553C3.51339 13.7553 3.49026 13.7628 3.47808 13.7635C3.44933 13.7647 3.4387 13.7525 3.43964 13.7344C3.44151 13.6928 3.44745 13.6525 3.36433 13.641C3.35433 13.6391 3.34027 13.5828 3.35714 13.5716C3.40901 13.5347 3.45433 13.5003 3.44714 13.4435C3.44527 13.4278 3.48308 13.4319 3.50526 13.4331C3.49433 13.5028 3.58683 13.5422 3.62214 13.6044C3.57808 13.6538 3.49652 13.6897 3.51339 13.7553Z" fill="#CB0101"/>
<path fill-rule="evenodd" clip-rule="evenodd" d="M2.9202 5.42024C2.9202 5.39211 2.92395 5.36305 2.91926 5.33492C2.91145 5.2893 2.93895 5.27617 3.00333 5.27742C3.06083 5.27805 3.09958 5.2818 3.09301 5.3318C3.08739 5.37867 3.09364 5.42649 3.09114 5.47336C3.08926 5.51367 3.11833 5.56211 3.00645 5.56336C2.89958 5.56461 2.9202 5.51836 2.9202 5.4768V5.42024Z" fill="#CC0404"/>
<path fill-rule="evenodd" clip-rule="evenodd" d="M1.54418 5.41366C1.54418 5.38209 1.547 5.35022 1.54325 5.31928C1.53856 5.26616 1.59418 5.27959 1.63575 5.27772C1.6795 5.27647 1.71668 5.27584 1.71481 5.31928C1.71095 5.37588 1.71095 5.43268 1.71481 5.48928C1.71856 5.53647 1.70887 5.56366 1.62231 5.56241C1.5345 5.56178 1.54325 5.52678 1.54418 5.48928V5.41366Z" fill="#CC0202"/>
<path fill-rule="evenodd" clip-rule="evenodd" d="M3.0917 15.0839C3.0917 15.1114 3.08889 15.1405 3.0917 15.1686C3.09889 15.213 3.07514 15.2274 3.00952 15.228C2.93764 15.2286 2.91264 15.2133 2.91889 15.1639C2.92452 15.1139 2.9217 15.0633 2.91983 15.0136C2.91639 14.9714 2.91795 14.943 3.00108 14.9414C3.09077 14.9402 3.09639 14.9724 3.0917 15.0177C3.08889 15.0396 3.0917 15.0614 3.0917 15.0839Z" fill="#CC0404"/>
<path fill-rule="evenodd" clip-rule="evenodd" d="M1.7139 15.0934C1.7139 15.1259 1.71202 15.1568 1.7139 15.1887C1.71765 15.2425 1.65984 15.2256 1.61952 15.2284C1.57484 15.2309 1.54046 15.2284 1.54327 15.1853C1.54702 15.1287 1.54515 15.0728 1.54327 15.0156C1.54234 14.9762 1.53859 14.945 1.62515 14.9434C1.7139 14.9421 1.71952 14.9731 1.71484 15.019C1.71202 15.0437 1.7139 15.069 1.7139 15.0934Z" fill="#CC0202"/>
<path fill-rule="evenodd" clip-rule="evenodd" d="M1.96343 10.5084C1.94343 10.4543 2.04905 10.4203 2.0928 10.369C2.14249 10.3081 2.15374 10.1912 2.09374 10.1359C2.03374 10.0815 1.94562 10.0312 1.96905 9.94559C1.97937 9.91153 1.97468 9.88466 2.0428 9.88684C2.09874 9.88934 2.15843 9.88247 2.14405 9.94372C2.13062 10.0037 2.26405 10.0115 2.2428 10.075C2.29749 10.0675 2.37218 10.1206 2.4028 10.0397C2.42155 9.99216 2.50343 9.96591 2.49812 9.90184C2.49718 9.87841 2.57062 9.89091 2.60905 9.88841C2.65155 9.88653 2.65499 9.90591 2.66405 9.92997C2.69687 10.0231 2.59249 10.0747 2.53343 10.1375C2.49155 10.1815 2.49062 10.3228 2.53155 10.3659C2.5878 10.4262 2.69249 10.4712 2.66655 10.5631C2.6553 10.6025 2.64343 10.6193 2.58405 10.6168C2.53405 10.6143 2.48624 10.6234 2.48343 10.5668C2.48155 10.5125 2.37499 10.4253 2.32624 10.424C2.19749 10.4187 2.18624 10.5047 2.15374 10.5522C2.1253 10.594 2.12093 10.6175 2.0453 10.6181C1.93968 10.6181 1.98124 10.5662 1.96343 10.5084Z" fill="#CB0101"/>
<path fill-rule="evenodd" clip-rule="evenodd" d="M1.79867 10.2426C1.79867 10.2079 1.8018 10.1732 1.79773 10.1388C1.79117 10.0907 1.82242 10.0798 1.88555 10.0801C1.94492 10.0807 1.98086 10.0866 1.97805 10.137C1.97252 10.2127 1.97252 10.2887 1.97805 10.3645C1.97992 10.4116 1.95117 10.4235 1.88836 10.4235C1.82961 10.422 1.79211 10.416 1.79773 10.366C1.8018 10.3263 1.79867 10.2841 1.79867 10.2426Z" fill="#CE0F0F"/>
<path fill-rule="evenodd" clip-rule="evenodd" d="M2.83314 10.2534C2.83314 10.2887 2.82939 10.324 2.83439 10.3584C2.8397 10.4053 2.82095 10.4259 2.74439 10.4253C2.67501 10.4237 2.65939 10.4059 2.66032 10.3631C2.66407 10.2896 2.66501 10.2162 2.66032 10.1437C2.65814 10.0996 2.67689 10.0828 2.74439 10.0821C2.82095 10.0803 2.8397 10.1021 2.83439 10.149C2.8297 10.1831 2.83314 10.2184 2.83314 10.2534Z" fill="#CC0303"/>
<path fill-rule="evenodd" clip-rule="evenodd" d="M2.23241 9.79793C2.23241 9.76637 2.23523 9.73575 2.23148 9.70418C2.22679 9.66012 2.26773 9.66137 2.31054 9.66262C2.35335 9.66387 2.40585 9.65106 2.40304 9.70418C2.39908 9.76127 2.39939 9.81814 2.40398 9.87481C2.40679 9.92293 2.39491 9.94856 2.31054 9.94731C2.21991 9.94668 2.23148 9.91137 2.23148 9.87356C2.23241 9.84887 2.23148 9.82387 2.23241 9.79793ZM2.4021 10.7089C2.4021 10.7401 2.40023 10.7707 2.4021 10.8029C2.40679 10.8567 2.35148 10.8414 2.31054 10.8439C2.26491 10.8464 2.22866 10.8451 2.23054 10.8017C2.23523 10.7451 2.23241 10.6889 2.23148 10.6317C2.23054 10.5929 2.22335 10.5595 2.31054 10.5586C2.39741 10.5579 2.40835 10.5851 2.40304 10.6323C2.39929 10.6579 2.4021 10.6829 2.4021 10.7089Z" fill="#CC0202"/>
</svg>
