<svg width="24" height="24" viewBox="0 0 24 24" fill="none" xmlns="http://www.w3.org/2000/svg">
<path fill-rule="evenodd" clip-rule="evenodd" d="M16.0665 7.93414C16.3594 8.22703 16.3594 8.70191 16.0665 8.9948L8.9954 16.0659C8.7025 16.3588 8.22763 16.3588 7.93474 16.0659C7.64184 15.773 7.64184 15.2981 7.93474 15.0052L15.0058 7.93414C15.2987 7.64125 15.7736 7.64125 16.0665 7.93414Z" fill="white"/>
<path fill-rule="evenodd" clip-rule="evenodd" d="M16.0654 16.0659C15.7725 16.3587 15.2976 16.3587 15.0047 16.0659L7.93364 8.99478C7.64075 8.70189 7.64075 8.22702 7.93364 7.93412C8.22654 7.64123 8.70141 7.64123 8.9943 7.93412L16.0654 15.0052C16.3583 15.2981 16.3583 15.773 16.0654 16.0659Z" fill="white"/>
</svg>
