<svg width="20" height="20" viewBox="0 0 20 20" fill="none" xmlns="http://www.w3.org/2000/svg">
<path d="M20 14.9996C20 15.5889 19.7659 16.1542 19.3491 16.5709C18.9324 16.9877 18.3671 17.2218 17.7778 17.2218H2.22222C1.63285 17.2218 1.06762 16.9877 0.650874 16.5709C0.234126 16.1542 0 15.5889 0 14.9996V4.99957C0 4.4102 0.234126 3.84496 0.650874 3.42822C1.06762 3.01147 1.63285 2.77734 2.22222 2.77734H17.7778C18.3671 2.77734 18.9324 3.01147 19.3491 3.42822C19.7659 3.84496 20 4.4102 20 4.99957V14.9996Z" fill="#00AFCA"/>
<path d="M10.576 10.7654C11.4551 10.7654 12.1677 10.0528 12.1677 9.1737C12.1677 8.29465 11.4551 7.58203 10.576 7.58203C9.69699 7.58203 8.98438 8.29465 8.98438 9.1737C8.98438 10.0528 9.69699 10.7654 10.576 10.7654Z" fill="#FFCC4D"/>
<path d="M10.5768 7.46222C10.6712 7.46111 10.7057 7.40167 10.7057 7.33111C10.7057 7.23667 10.5768 6.5 10.5768 6.5C10.5768 6.5 10.4457 7.23667 10.4457 7.33111C10.4457 7.40167 10.4812 7.46222 10.5768 7.46222ZM10.5768 10.8944C10.4812 10.895 10.4457 10.9544 10.4457 11.025C10.4457 11.12 10.5768 11.8467 10.5768 11.8467C10.5768 11.8467 10.7057 11.1194 10.7057 11.025C10.7062 10.955 10.6712 10.8944 10.5768 10.8944ZM10.1318 10.8272C10.0401 10.8039 9.99179 10.8522 9.97346 10.9206C9.94901 11.0117 9.8829 11.7572 9.8829 11.7572C9.8829 11.7572 10.2001 11.0789 10.2246 10.9878C10.2435 10.9194 10.224 10.8517 10.1318 10.8272ZM11.0207 7.51167C11.1129 7.53611 11.1629 7.48722 11.1812 7.41944C11.2057 7.32778 11.2668 6.59167 11.2668 6.59167C11.2668 6.59167 10.9546 7.26 10.9296 7.35222C10.9112 7.42 10.929 7.48722 11.0207 7.51167ZM9.71901 10.655C9.63623 10.6089 9.57679 10.6428 9.54179 10.7044C9.49457 10.7861 9.2379 11.4889 9.2379 11.4889C9.2379 11.4889 9.71957 10.9161 9.76679 10.8344C9.80234 10.7728 9.80179 10.7028 9.71901 10.655ZM11.4351 7.68222C11.5179 7.73 11.579 7.69556 11.614 7.63444C11.6618 7.55222 11.9112 6.85778 11.9112 6.85778C11.9112 6.85778 11.4357 7.42278 11.3879 7.50444C11.3535 7.56556 11.3535 7.635 11.4351 7.68222ZM9.36457 10.3833C9.29679 10.3172 9.23068 10.3344 9.18068 10.3844C9.11401 10.4517 8.68401 11.0639 8.68401 11.0639C8.68401 11.0639 9.2979 10.635 9.36457 10.5689C9.41457 10.5189 9.43234 10.45 9.36457 10.3833ZM11.7918 7.95556C11.8596 8.02278 11.9268 8.00556 11.9768 7.95556C12.044 7.88889 12.4651 7.28167 12.4651 7.28167C12.4651 7.28167 11.8601 7.705 11.7935 7.77222C11.7435 7.82222 11.7251 7.88889 11.7918 7.95556ZM9.09346 10.0283C9.04512 9.94722 8.97679 9.94722 8.91512 9.98222C8.8329 10.0294 8.25957 10.5094 8.25957 10.5094C8.25957 10.5094 8.96346 10.255 9.04512 10.2078C9.10679 10.1722 9.14123 10.1111 9.09346 10.0283ZM12.0657 8.31222C12.114 8.395 12.184 8.39556 12.2446 8.36056C12.3268 8.31278 12.8907 7.83611 12.8907 7.83611C12.8907 7.83611 12.1968 8.08778 12.1146 8.135C12.0535 8.17056 12.019 8.23 12.0657 8.31222ZM8.9229 9.61556C8.89734 9.52444 8.83068 9.50667 8.76234 9.52444C8.67123 9.54889 7.9929 9.86444 7.9929 9.86444C7.9929 9.86444 8.73846 9.80056 8.82957 9.77611C8.8979 9.75722 8.94734 9.70778 8.9229 9.61556ZM12.2373 8.72667C12.2629 8.81889 12.3296 8.83778 12.3979 8.81944C12.4896 8.795 13.1579 8.48056 13.1579 8.48056C13.1579 8.48056 12.4223 8.54389 12.3301 8.56833C12.2623 8.58611 12.2129 8.63556 12.2373 8.72667ZM8.86457 9.17278C8.86345 9.07833 8.80401 9.04389 8.73346 9.04389C8.63901 9.04389 7.90234 9.17278 7.90234 9.17278C7.90234 9.17278 8.63901 9.30389 8.73346 9.30389C8.80401 9.30389 8.86457 9.26833 8.86457 9.17278ZM12.2968 9.17278C12.2973 9.26833 12.3568 9.30389 12.4273 9.30389C12.5223 9.30389 13.249 9.17278 13.249 9.17278C13.249 9.17278 12.5218 9.04389 12.4273 9.04389C12.3568 9.04333 12.2968 9.07833 12.2968 9.17278ZM8.9229 8.73C8.94623 8.63833 8.8979 8.59 8.82957 8.57167C8.73846 8.54722 7.9929 8.48111 7.9929 8.48111C7.9929 8.48111 8.67123 8.79833 8.76234 8.82278C8.83068 8.84111 8.89845 8.82222 8.9229 8.73ZM12.2379 9.61833C12.2135 9.71056 12.2623 9.76056 12.3301 9.77889C12.4218 9.80333 13.1579 9.86444 13.1579 9.86444C13.1579 9.86444 12.4896 9.55167 12.3973 9.52722C12.3296 9.50944 12.2623 9.52667 12.2379 9.61833ZM9.09401 8.31722C9.14012 8.235 9.10623 8.175 9.04457 8.14C8.9629 8.09278 8.26012 7.83611 8.26012 7.83611C8.26012 7.83611 8.8329 8.31778 8.91457 8.365C8.97623 8.40056 9.04623 8.39944 9.09401 8.31722ZM12.0668 10.0333C12.019 10.1161 12.0535 10.1772 12.1146 10.2122C12.1962 10.26 12.8912 10.5094 12.8912 10.5094C12.8912 10.5094 12.3262 10.0344 12.2446 9.98667C12.1835 9.95167 12.114 9.95167 12.0668 10.0333ZM9.36568 7.96278C9.43179 7.895 9.41457 7.82889 9.36457 7.77889C9.29734 7.71222 8.68512 7.28222 8.68512 7.28222C8.68512 7.28222 9.11401 7.89611 9.18012 7.96278C9.23012 8.01278 9.29846 8.03056 9.36568 7.96278ZM11.7935 10.39C11.7262 10.4578 11.7435 10.5256 11.7935 10.575C11.8601 10.6422 12.4673 11.0633 12.4673 11.0633C12.4673 11.0633 12.044 10.4583 11.9768 10.3911C11.9268 10.3411 11.8601 10.3228 11.7935 10.39ZM9.72123 7.69111C9.80179 7.64278 9.80234 7.57444 9.76734 7.51278C9.72012 7.43111 9.24012 6.85722 9.24012 6.85722C9.24012 6.85722 9.49457 7.56111 9.54179 7.64278C9.57679 7.70444 9.63845 7.73889 9.72123 7.69111ZM11.4373 10.6639C11.3551 10.7117 11.354 10.7811 11.389 10.8422C11.4368 10.9244 11.9135 11.4883 11.9135 11.4883C11.9135 11.4883 11.6618 10.7939 11.6146 10.7117C11.579 10.6511 11.519 10.6161 11.4373 10.6639ZM10.1335 7.52056C10.2246 7.495 10.2423 7.42833 10.2246 7.36C10.2001 7.26889 9.88457 6.59056 9.88457 6.59056C9.88457 6.59056 9.94846 7.33611 9.9729 7.42722C9.99123 7.49556 10.0412 7.545 10.1335 7.52056ZM11.0223 10.8356C10.9301 10.8611 10.9112 10.9278 10.9296 10.9961C10.954 11.0878 11.2685 11.7561 11.2685 11.7561C11.2685 11.7561 11.2051 11.02 11.1807 10.9289C11.1629 10.8606 11.1135 10.8111 11.0223 10.8356Z" fill="#FFCC4D"/>
<path d="M12.1364 13.1364L12.1158 13.1453L12.093 13.1487L12.0758 13.152L12.0441 13.1453L12.0302 13.1398L12.0175 13.1337L12.0025 13.1242L11.9775 13.1064L11.9547 13.0881L11.9419 13.0792L11.9258 13.0726L11.9147 13.0698H11.8986L11.8358 13.2003L11.823 13.2187L11.8108 13.2337L11.798 13.2431L11.7869 13.2526L11.7708 13.2587H11.7558L11.7419 13.2526L11.7225 13.2431L11.7169 13.2337L11.7102 13.2242L11.7036 13.212L11.6969 13.1976L11.688 13.1514L11.6697 13.1664L11.6525 13.1881L11.618 13.2403L11.5975 13.2676L11.5758 13.2887L11.5641 13.3014L11.5491 13.3109L11.5341 13.3176L11.5158 13.3231H11.5069L11.4908 13.3264L11.4758 13.3231L11.4641 13.3176L11.4286 13.2748L11.3886 13.232L11.3614 13.2748L11.3297 13.3109L11.3147 13.3259L11.3008 13.3409L11.2858 13.3531L11.2575 13.3687L11.2425 13.372H11.2275L11.2147 13.3687L11.2025 13.362L11.1936 13.3526L11.1819 13.3381L11.1569 13.2709L11.1536 13.2553L11.148 13.2437L11.1414 13.2376H11.1347L11.0525 13.372L11.0408 13.3837L11.0191 13.3931L10.9714 13.4048H10.943L10.9214 13.3987L10.9147 13.3953L10.9058 13.3859L10.9036 13.3803V13.3681L10.9147 13.2337L10.9058 13.237L10.8819 13.2487C10.86 13.2714 10.8386 13.2947 10.818 13.3187L10.7908 13.3526L10.7569 13.3809L10.7252 13.4048L10.7075 13.4148L10.6708 13.4203L10.6558 13.417L10.6491 13.4148L10.643 13.4081L10.6397 13.3987V13.3892L10.643 13.3503L10.6525 13.2887L10.6464 13.2526L10.6336 13.2314L10.6152 13.2587L10.5852 13.2981L10.5086 13.3781L10.4658 13.4087L10.4325 13.4203L10.4258 13.417H10.4164L10.4097 13.4114L10.4075 13.4081L10.4008 13.3987L10.3986 13.3892V13.3776L10.3952 13.362L10.3986 13.2464C10.343 13.2842 10.2869 13.3207 10.2302 13.3559L10.2091 13.3653L10.1852 13.3776C10.1627 13.3831 10.1402 13.389 10.118 13.3953H10.0958L10.0752 13.3926L10.0564 13.3859L10.0658 13.3614L10.0841 13.3187L10.0958 13.3009L10.1091 13.2826L10.1208 13.2642L10.1519 13.2337L10.1858 13.2098L10.2247 13.1848L10.2647 13.1664L10.3108 13.1514L10.3564 13.1398L10.4602 13.1214L10.5119 13.1148C10.6652 13.1059 10.8191 13.1048 10.9725 13.1059L11.1408 13.0964L11.193 13.0903L11.2897 13.072L11.3364 13.0592L11.3797 13.0415L11.4197 13.0231C11.4408 13.0064 11.4625 12.9902 11.4847 12.9742L11.5141 12.9398L11.4825 12.8792L11.5075 12.8759L11.5314 12.8703L11.5564 12.8581L11.5769 12.8426L11.5858 12.837L11.5958 12.8276L11.6025 12.8153L11.6091 12.8064L11.6114 12.7942V12.7731L11.6047 12.7609L11.6569 12.7514L11.7125 12.7453L11.7708 12.742H11.8314C11.9165 12.7453 12.0012 12.7503 12.0852 12.757C12.213 12.7718 12.3412 12.7852 12.4697 12.797L12.5847 12.8031V12.8453L12.5825 12.8642L12.5758 12.882L12.5702 12.9003L12.5636 12.9153L12.5547 12.9276C12.5439 12.9398 12.5327 12.9518 12.5208 12.9637L12.4936 12.9814L12.4641 12.9937L12.4347 13.0003L12.4008 13.0064L12.3358 13.0003L12.3019 12.9909L12.2725 12.9753L12.2408 12.9603L12.2169 12.9387L12.193 12.9148V12.967L12.178 13.0681L12.1664 13.0998L12.1597 13.1126L12.1508 13.1214L12.1441 13.1309L12.1364 13.1364ZM9.68191 12.8492L9.75135 12.8798L9.79413 12.8464L9.82135 12.832L9.8458 12.8164L9.93747 12.7798L10.0164 12.7431L10.0564 12.7281L10.1241 12.692L10.1514 12.6731C10.2202 12.6279 10.2895 12.5835 10.3591 12.5398L10.4197 12.497L10.4658 12.4603C10.511 12.4192 10.5558 12.3776 10.6002 12.3353L10.6186 12.3231L10.6397 12.3109L10.7164 12.2742L10.768 12.2564C10.8717 12.2283 10.9764 12.2059 11.0819 12.1892L11.4052 12.1498L11.5486 12.1253C11.5841 12.1153 11.6199 12.1063 11.6558 12.0981L11.6925 12.052L11.7514 11.9881L11.7914 11.9487L11.8358 11.9114L11.888 11.872L11.9486 11.832L12.0408 11.7776C12.1067 11.7442 12.1725 11.7105 12.238 11.6764C12.3543 11.6216 12.4697 11.5646 12.5841 11.5053L12.6386 11.4687L12.6536 11.4226L12.6752 11.3776L12.7025 11.3314L12.773 11.237C12.8052 11.2029 12.8367 11.1681 12.8675 11.1326C12.9052 11.0959 12.9439 11.0603 12.9836 11.0259L13.0425 10.9776L13.0719 10.9559L13.1036 10.9348C13.1258 10.9218 13.1482 10.9096 13.1708 10.8981L13.2047 10.8826L13.2375 10.8709L13.3091 10.852L13.3447 10.8498L13.3786 10.8464L13.4141 10.8498L13.448 10.8553L13.4458 10.892L13.4369 10.9281L13.4097 11.0048L13.3869 11.0442L13.3597 11.0842L13.3264 11.1264L13.2864 11.1692L13.318 11.1659L13.3452 11.1598L13.3669 11.1531L13.3875 11.1442L13.4275 11.132L13.4847 11.1259L13.488 11.1476V11.1687L13.4847 11.1898L13.4791 11.2081L13.4702 11.2264L13.4575 11.2448L13.4458 11.2592L13.4308 11.2748C13.3888 11.3153 13.346 11.3549 13.3025 11.3937L13.3386 11.397C13.3652 11.4055 13.3921 11.4135 13.4191 11.4209L13.4486 11.4276L13.413 11.4553L13.3275 11.5103L13.2297 11.5653L13.1808 11.5959L13.1319 11.6298L13.0864 11.6664L13.1069 11.6692L13.1352 11.6814L13.1475 11.6848L13.1591 11.6909L13.1691 11.6937L13.178 11.6909L13.1175 11.7248L13.0047 11.7798L12.958 11.8076L12.9491 11.817L12.9436 11.8264L12.9369 11.8353L12.9391 11.8476L12.9458 11.857L12.9575 11.8659L12.9686 11.8759L12.9641 11.8876L12.9575 11.8976L12.9458 11.9064L12.9347 11.9159L12.9052 11.9303L12.8697 11.9459L12.8002 11.9703L12.7569 11.992L12.8175 12.0526L12.7958 12.0737L12.7752 12.0892L12.7569 12.0987L12.7352 12.1076L12.693 12.1137H12.633L12.6397 12.1414L12.6486 12.1687L12.6614 12.2303C12.6234 12.2597 12.5847 12.288 12.5452 12.3153L12.4747 12.3609L12.3964 12.4064L12.3497 12.4281L12.3041 12.4492C12.2527 12.4691 12.2006 12.4874 12.148 12.5042L12.0297 12.5292L11.9647 12.5387C12.0351 12.5409 12.1056 12.5418 12.1764 12.5414L12.3497 12.5231L12.4258 12.5081L12.493 12.4898C12.5375 12.4746 12.5812 12.4583 12.6241 12.4409L12.7086 12.402L12.7919 12.3559L12.8702 12.3064L12.9536 12.2581L12.9036 12.2337L12.8558 12.2187L12.833 12.2081C12.816 12.1996 12.7986 12.1916 12.7808 12.1842L12.7525 12.1687L12.7764 12.1509L12.8058 12.1387L12.8375 12.127C12.8745 12.1181 12.9114 12.1098 12.948 12.102C12.9958 12.0968 13.0436 12.0909 13.0914 12.0842L13.1519 12.0781L13.1986 12.0664L13.2108 12.0598L13.2197 12.0503L13.2175 12.047L13.2108 12.0409L13.2019 12.0376L13.1902 12.032L13.1564 12.0253L13.113 12.0192L13.0708 12.0159L13.0286 12.0098L12.9908 12.0003L12.968 11.9909L13.2664 11.9242L13.3186 11.9087C13.3412 11.9002 13.3636 11.8911 13.3858 11.8814L13.4152 11.8626L13.428 11.8509L13.4247 11.8481L13.4191 11.8414L13.3908 11.8353L13.3519 11.832H13.3052L13.2108 11.8264L13.1719 11.8198L13.1469 11.8137L13.1902 11.7959C13.2551 11.7759 13.3202 11.7574 13.3858 11.7403C13.4228 11.7274 13.4604 11.7152 13.4986 11.7037L13.5564 11.6792L13.5836 11.6642L13.6086 11.6492L13.6175 11.6398L13.6269 11.6276L13.6358 11.6187L13.6391 11.6092L13.6358 11.5998L13.6269 11.5931L13.6175 11.5909H13.533L13.493 11.5931H13.4386L13.4225 11.5909L13.4119 11.5842L13.3986 11.5781C13.5097 11.5044 13.6217 11.432 13.7347 11.3609L13.8225 11.2998C13.8462 11.2802 13.8693 11.26 13.8919 11.2392L13.9191 11.2087L13.9441 11.1781L13.9625 11.1448L13.9775 11.1114L13.9864 11.0742V11.0348H13.9658L13.9441 11.0381L13.8964 11.0559C13.854 11.0824 13.811 11.108 13.7675 11.1326L13.7436 11.1481L13.7152 11.1598L13.688 11.1692L13.663 11.1753L13.6391 11.1787H13.6108L13.5869 11.1692L13.6608 11.1142C13.7201 11.0635 13.7789 11.0126 13.8375 10.9614C13.9019 10.8998 13.9649 10.8367 14.0264 10.772L14.1141 10.6742C14.1401 10.6398 14.1667 10.6061 14.1941 10.5731C14.216 10.542 14.2373 10.5105 14.258 10.4787L14.2647 10.467L14.2669 10.4576L14.2647 10.4448L14.2614 10.4359L14.258 10.4259L14.2491 10.4198L14.2397 10.4103L14.2308 10.407L14.2191 10.4014L14.2058 10.3981H14.1819L14.1702 10.4014L14.1541 10.4037L14.1452 10.4137L14.1325 10.4231C14.0702 10.4853 14.0088 10.5485 13.948 10.6126L13.8741 10.6826L13.7275 10.8081L13.6569 10.8537L13.5897 10.8876L13.6102 10.8692C13.6325 10.8481 13.6541 10.8268 13.6752 10.8053C13.7534 10.715 13.8286 10.6224 13.9008 10.5276L14.0419 10.3292L14.0797 10.2626L14.1175 10.2014L14.148 10.1459L14.1719 10.0937L14.1869 10.0514L14.1902 10.0364V10.012L14.1869 10.0026L14.1758 9.98423L14.1691 9.97812L14.1591 9.97534L14.1419 9.96534L14.1191 9.95923H14.0775L14.0658 9.96256L14.0569 9.96534L14.0441 9.972L14.0352 9.98089L14.0102 10.0026C13.9828 10.0355 13.9563 10.0692 13.9308 10.1037C13.8697 10.1992 13.8056 10.2927 13.7386 10.3842L13.6614 10.4759L13.6225 10.5159L13.5802 10.5526L13.6347 10.4509L13.7202 10.2714L13.7758 10.1403L13.7997 10.0731L13.8419 9.93534C13.8527 9.89089 13.8621 9.84626 13.8702 9.80145C13.8739 9.75997 13.8773 9.71812 13.8802 9.67589L13.8758 9.64534L13.8736 9.61812L13.8702 9.58978L13.8614 9.55423L13.8547 9.54423L13.8397 9.52923L13.8191 9.52034L13.7964 9.51367H13.7758L13.7564 9.517L13.7508 9.52034L13.7419 9.52256L13.7386 9.52923C13.6836 9.70256 13.6419 9.87923 13.5941 10.0542L13.5397 10.2009L13.4941 10.2892L13.4658 10.3287L13.4841 10.2409C13.493 10.1902 13.501 10.1392 13.508 10.0881L13.5208 9.96256L13.5241 9.91034L13.5175 9.83089L13.5119 9.80034L13.503 9.77589L13.4902 9.75756L13.4836 9.75145L13.4652 9.74534L13.4564 9.742H13.4464L13.4375 9.74534L13.4125 9.75145L13.3886 9.76367C13.3697 9.85812 13.3473 9.95182 13.3214 10.0448C13.2851 10.1619 13.2425 10.2768 13.1936 10.3892C13.1605 10.4583 13.1257 10.5264 13.0891 10.5937L13.0219 10.7098L12.9491 10.8192C12.9003 10.8875 12.8497 10.9546 12.7975 11.0203C12.7464 11.0777 12.6943 11.1348 12.6414 11.1914C12.5865 11.2455 12.5304 11.2987 12.473 11.3509C12.4141 11.3994 12.3545 11.447 12.2941 11.4937C12.2202 11.5469 12.1446 11.5979 12.0675 11.6464L11.933 11.7253L11.7191 11.8237L11.4991 11.9026L11.3169 11.9581L11.128 12.0003L11.0336 12.0159L10.8402 12.0403L10.7425 12.0464L10.733 12.0498L10.7236 12.0526L10.7052 12.0626L10.6847 12.077L10.6141 12.1409L10.5652 12.1903L10.388 12.3881L10.3208 12.4553L10.2419 12.5159L10.2108 12.537L10.1802 12.5559L10.1136 12.5864C10.0102 12.6287 9.90524 12.667 9.80135 12.7087L9.77413 12.7237L9.74969 12.7364L9.73191 12.7481L9.69802 12.782L9.68858 12.797L9.68191 12.812L9.67969 12.8337V12.8492" fill="#FFCC4D"/>
<path d="M10.8011 12.9859L10.8523 12.9926L10.8773 13.002L10.8828 13.0048V13.0081H10.8773L10.8706 13.0109L10.8217 13.0204H10.7828L10.655 13.0109L10.3311 13.0048C10.2456 13.0059 10.16 13.0079 10.0745 13.0109C9.99929 13.0165 9.92392 13.0226 9.84837 13.0292L9.79004 13.0387L9.73837 13.0504C9.72652 13.0548 9.71448 13.0589 9.70226 13.0626L9.6867 13.0692L9.67448 13.0787L9.68004 13.0476L9.69337 13.0165L9.65059 13.0287L9.61392 13.047L9.59948 13.0565L9.5867 13.0687L9.57726 13.0831L9.57503 13.0987L9.56615 13.0776L9.55948 13.0587L9.55281 13.0192C9.55652 13.0033 9.55948 12.9872 9.5617 12.9709L9.5717 12.9554L9.57726 12.9431L9.59003 12.9287L9.61448 12.9042L9.64781 12.8826L9.68559 12.8615C9.70549 12.8731 9.72676 12.8823 9.74892 12.8887C9.77078 12.891 9.79287 12.8889 9.81392 12.8826C9.84781 12.9126 9.93559 12.9065 9.94781 12.852C9.95254 12.8319 9.95254 12.811 9.94781 12.7909L9.98448 12.7881L10.0273 12.7815L10.1217 12.757L10.1711 12.7476L10.2167 12.7359L10.2595 12.7298L10.2956 12.7265L10.2806 12.7392L10.2011 12.7998L10.1711 12.8209L10.21 12.8309L10.2439 12.837L10.1717 12.9192L10.1528 12.9437L10.1767 12.9531L10.2011 12.9598L10.2289 12.9659H10.2839L10.3384 12.9537L10.36 12.9409L10.385 12.9537L10.4095 12.9631C10.425 12.9676 10.441 12.9717 10.4573 12.9754L10.5711 12.987H10.8011M10.5228 12.0581L10.4956 12.1131L10.4645 12.1837C10.4486 12.2125 10.4336 12.2418 10.4195 12.2715L10.4039 12.287L10.3678 12.2565L10.3278 12.2287L10.285 12.207L10.24 12.1892L10.1417 12.1642L10.0934 12.1554C10.0405 12.1493 9.98754 12.1443 9.93448 12.1404C9.86421 12.1392 9.79399 12.1359 9.72392 12.1304L9.62615 12.1187L9.57115 12.1092L9.51948 12.0976L9.46503 12.0787L9.41892 12.0548L9.38504 12.0326L9.31504 11.9809C9.21281 11.8848 9.1117 11.7876 9.0067 11.6937L8.94615 11.6515L8.91837 11.6392L8.88948 11.6304L8.83781 11.6187L8.7467 11.5881L8.66059 11.5487C8.61012 11.5176 8.56135 11.4839 8.51448 11.4476L8.48392 11.4192L8.42337 11.3587L8.36503 11.2948C8.26892 11.1776 8.17837 11.0565 8.08448 10.9376C8.03957 10.8899 7.99382 10.8431 7.94726 10.797L7.90781 10.7609L7.86781 10.7276L7.78004 10.6637L7.77115 10.6665L7.76115 10.6759L7.7517 10.6881C7.74615 10.7022 7.74133 10.7165 7.73726 10.7309L7.73392 10.7431L7.7117 10.7331L7.69337 10.7237L7.67115 10.7142L7.65281 10.7081H7.61337L7.5917 10.7142L7.57059 10.7237C7.58726 10.7448 7.60337 10.7661 7.61892 10.7876L7.64615 10.8304L7.69559 10.9248L7.71337 10.9709L7.72004 10.9954L7.7267 11.0137L7.72948 11.0348V11.0526H7.56504L7.58892 11.0892C7.60744 11.1141 7.62652 11.1385 7.64615 11.1626L7.74726 11.2637L7.78115 11.2909L7.81226 11.3126L7.73281 11.3192L7.65281 11.3281L7.68003 11.3531C7.70374 11.3698 7.72726 11.387 7.75059 11.4048L7.79003 11.432L7.83004 11.4565L7.86948 11.4781L7.90615 11.4904L7.94004 11.4992L7.96726 11.5054L7.97615 11.5087L7.98281 11.5154L7.98503 11.5181V11.5298L7.97615 11.5548L7.97392 11.5726L7.97004 11.5848V11.5937L7.97392 11.6092L7.97615 11.6215L7.98281 11.627L7.9917 11.6337L8.00337 11.6398L8.01892 11.6431L8.05004 11.6554L8.06503 11.6609L8.07726 11.6704L8.08004 11.6737V11.6798L8.07726 11.6831L8.05281 11.7009L8.04059 11.7131L8.02837 11.7281V11.7409L8.02559 11.7531L8.0317 11.7859L8.13837 11.8226L8.16281 11.8281L8.18726 11.8381L8.20559 11.8476L8.22115 11.857L8.12003 11.9365L8.14726 11.9609L8.18115 11.9792L8.22392 12.0004C8.25429 12.0115 8.28504 12.0218 8.31615 12.0315L8.3617 12.0404L8.4017 12.0498H8.43781L8.40392 12.0742L8.36115 12.1015L8.31559 12.1265L8.2817 12.1509L8.31226 12.172C8.40485 12.2202 8.49966 12.2641 8.5967 12.3037C8.76596 12.3722 8.93781 12.4331 9.11226 12.4865C9.15115 12.4957 9.18966 12.5059 9.22781 12.517L9.2767 12.5265L9.17837 12.517C9.11726 12.509 9.05632 12.4998 8.99559 12.4892L8.91004 12.4709L8.7417 12.4226L8.66281 12.3948C8.4517 12.3126 8.24559 12.2181 8.03392 12.1381L8.04948 12.1292L8.09226 12.1137L8.11948 12.1076C8.15652 12.0965 8.19318 12.0842 8.22948 12.0709C8.15672 12.06 8.08428 12.047 8.01226 12.032C7.97491 12.0199 7.93731 12.0086 7.89948 11.9981L7.87781 11.9887L7.85948 11.9792L7.84448 11.9692L7.83448 11.9604V11.9576L7.83781 11.9542L7.84726 11.9509L7.85615 11.9448L7.88059 11.9354L7.98726 11.9042L8.04892 11.8831C7.96041 11.8665 7.8717 11.8513 7.78281 11.8376L7.74003 11.8276L7.70615 11.8159L7.69392 11.8092L7.68226 11.7998L7.67226 11.7942L7.66615 11.7842L7.67559 11.7781L7.70281 11.772C7.73133 11.7676 7.75985 11.7626 7.78837 11.757L7.83726 11.7509C7.86503 11.7431 7.89244 11.7348 7.91948 11.7259L7.93226 11.717L7.94448 11.707L7.89615 11.6887L7.86504 11.6831L7.83448 11.6765L7.69448 11.6581L7.65781 11.6492L7.62392 11.6426L7.5567 11.6187L7.52559 11.6031L7.50059 11.5854L7.47615 11.5637L7.45781 11.5365L7.46448 11.5331L7.47615 11.5298H7.4917L7.51615 11.5331L7.63226 11.5392L7.70004 11.5459H7.78504L7.80892 11.5426L7.82781 11.5365L7.84004 11.5298C7.78255 11.5064 7.7255 11.482 7.66892 11.4565C7.6315 11.4374 7.59371 11.4191 7.55559 11.4015L7.44003 11.3409L7.38503 11.307L7.28448 11.2337L7.2417 11.197L7.22281 11.1759L7.20392 11.1576L7.19226 11.1392L7.17948 11.1176L7.16726 11.0998L7.16059 11.0787L7.15559 11.0392H7.17615L7.20059 11.042L7.22503 11.052L7.24948 11.0609L7.29781 11.0915L7.35281 11.122L7.37726 11.1376L7.40448 11.152L7.4317 11.1642L7.45615 11.1737L7.48337 11.1804L7.50781 11.1831H7.53559L7.55948 11.1737L7.48726 11.1181C7.42743 11.0685 7.36835 11.0179 7.31003 10.9665C7.21345 10.8743 7.1206 10.7783 7.0317 10.6787L6.99281 10.627L6.95281 10.5781L6.88837 10.4831L6.88281 10.4709V10.4498L6.88559 10.4404L6.88837 10.4315L6.89781 10.4254L6.9067 10.4159L6.9167 10.4092L6.92837 10.4059L6.94059 10.4037H6.96504L6.98003 10.4059L6.99337 10.4092L7.00503 10.4187C7.07096 10.4842 7.13596 10.5505 7.20003 10.6176C7.27041 10.6854 7.34374 10.7505 7.42003 10.8131L7.49003 10.8581L7.52615 10.877L7.56004 10.8887L7.53615 10.8737L7.47226 10.8098C7.39448 10.7194 7.31911 10.6268 7.24615 10.532L7.15115 10.3976C7.12351 10.3533 7.09499 10.3096 7.06559 10.2665C7.04225 10.2283 7.01984 10.1896 6.99837 10.1504L6.95948 10.0559L6.95559 10.0409V10.0159L6.95948 10.007L6.97115 9.98869L6.97781 9.98202L6.98726 9.97647L7.0267 9.96369H7.06948L7.0817 9.96647L7.09059 9.9698L7.10281 9.97647L7.1367 10.007L7.21615 10.1081C7.27837 10.2037 7.34355 10.2972 7.4117 10.3887L7.48392 10.4804L7.52392 10.5198L7.5667 10.5565C7.51802 10.4642 7.47134 10.3708 7.4267 10.2765L7.3717 10.1454L7.34726 10.0781C7.33449 10.0318 7.32023 9.98581 7.30448 9.94036L7.28948 9.87313L7.27837 9.8048L7.2717 9.74091L7.26892 9.68036L7.2717 9.6498L7.27559 9.62202L7.27837 9.59425L7.28448 9.56702L7.29059 9.55702L7.29392 9.54813L7.30281 9.53813L7.30892 9.53258L7.33003 9.52313L7.3517 9.51758H7.37281L7.39115 9.52091L7.40004 9.52313L7.4067 9.52647L7.41003 9.53313L7.41337 9.54202C7.46559 9.71258 7.50837 9.88591 7.55337 10.0587C7.57115 10.1068 7.58966 10.1546 7.60892 10.202L7.63003 10.2476L7.65448 10.2904L7.6817 10.3331L7.66392 10.2442C7.65694 10.1935 7.64879 10.1429 7.63948 10.0926C7.63343 10.0336 7.62843 9.97451 7.62448 9.91536L7.63059 9.83591L7.6367 9.8048L7.64615 9.78091L7.65837 9.76258L7.66448 9.75591L7.67337 9.7498L7.68226 9.74702H7.71003L7.73504 9.75591L7.75892 9.76813L7.8017 9.96036C7.81726 10.0189 7.83448 10.0768 7.85337 10.1342C7.88448 10.2217 7.91818 10.3081 7.95448 10.3937L7.99726 10.482L8.05837 10.5987L8.12503 10.7142L8.19892 10.8242L8.27781 10.9337L8.3517 11.0254C8.40281 11.0831 8.45466 11.1402 8.50726 11.1965C8.56244 11.2505 8.61855 11.3033 8.67559 11.3548L8.76392 11.4287C8.84504 11.492 8.92855 11.552 9.01448 11.6087C9.08189 11.6487 9.15004 11.6874 9.21892 11.7248L9.42892 11.8259C9.53559 11.8681 9.64337 11.9067 9.75226 11.9415C9.85892 11.97 9.96689 11.9944 10.0761 12.0148C10.2228 12.0378 10.3717 12.0522 10.5228 12.0581Z" fill="#FFCC4D"/>
<path d="M1.92075 15.8463C1.92075 15.8463 1.78908 15.9558 1.74464 15.9008C1.67297 15.8119 1.96519 15.368 1.96519 15.2113C1.96519 14.9552 1.79352 14.8841 1.58241 14.848C1.44019 14.8236 1.20964 14.8586 1.20964 14.8586C1.25297 14.9169 1.2813 14.9352 1.35464 14.9386C1.30394 14.9649 1.26166 15.005 1.23259 15.0542C1.20352 15.1034 1.18883 15.1598 1.19019 15.2169C1.19019 15.4369 1.2813 15.528 1.2813 15.7774C1.2813 15.9158 1.16797 16.0913 1.16797 16.0913C1.36797 16.0713 1.46797 15.8863 1.4113 15.7374C1.42661 15.7344 1.44244 15.7352 1.45737 15.7397C1.4723 15.7443 1.48587 15.7525 1.49686 15.7636C1.5113 15.723 1.48852 15.6747 1.45741 15.6341C1.48241 15.6213 1.50075 15.6291 1.54019 15.6369C1.5363 15.5947 1.51075 15.5502 1.44908 15.508C1.62908 15.5541 1.73964 15.4291 1.73964 15.298C1.73964 15.198 1.67019 15.1269 1.60186 15.1269C1.576 15.1278 1.55086 15.1357 1.52908 15.1497C1.5163 15.123 1.52297 15.0863 1.53575 15.0591C1.4863 15.0719 1.45464 15.1013 1.47741 15.1636C1.46047 15.1638 1.44377 15.1676 1.42837 15.1747C1.41297 15.1818 1.39921 15.192 1.38797 15.2047C1.39883 15.2177 1.41254 15.2281 1.42804 15.2351C1.44355 15.242 1.46044 15.2453 1.47741 15.2447C1.44964 15.3024 1.48075 15.3352 1.52575 15.3608C1.52575 15.3608 1.49686 15.2447 1.57075 15.2447C1.60408 15.2447 1.63408 15.2563 1.63408 15.3047C1.63408 15.3463 1.59686 15.4052 1.5113 15.4019C1.42519 15.398 1.35575 15.3424 1.35575 15.2063C1.35575 15.0791 1.45741 15.0163 1.5913 15.0124C1.71241 15.0086 1.80352 15.0741 1.80352 15.1991C1.80352 15.3647 1.56352 15.7436 1.56352 15.8913C1.56352 16.0024 1.66297 16.0641 1.76075 16.0641C1.88741 16.0641 1.99408 15.9386 1.99408 15.9386L1.92075 15.8463ZM1.89297 12.8452C1.89297 12.5686 2.14186 12.4258 2.33741 12.4258C2.60075 12.4258 2.7413 12.5836 2.7413 12.7891C2.7413 12.9069 2.71964 12.9802 2.66575 13.0919L2.06186 14.3458C2.04031 14.3986 2.03063 14.4555 2.03352 14.5124C2.03352 14.6247 2.14297 14.7169 2.25741 14.7197C2.3613 14.7224 2.47519 14.6224 2.47519 14.5086C2.47519 14.3702 2.40408 14.3091 2.33019 14.3091C2.23964 14.3091 2.20352 14.3458 2.20352 14.4097C2.20352 14.4547 2.22519 14.4736 2.25575 14.4736C2.33352 14.4736 2.31186 14.3691 2.31186 14.3691C2.32221 14.3713 2.33196 14.3757 2.34042 14.382C2.34888 14.3883 2.35585 14.3965 2.36083 14.4058C2.36581 14.4151 2.36868 14.4254 2.36924 14.436C2.36981 14.4465 2.36804 14.4571 2.36408 14.4669C2.39313 14.4731 2.41942 14.4885 2.43908 14.5108C2.41903 14.532 2.39278 14.5464 2.36408 14.5519C2.38241 14.6119 2.35797 14.6413 2.30575 14.6541C2.31451 14.6338 2.31702 14.6114 2.31297 14.5897C2.23019 14.613 2.10352 14.5763 2.10352 14.433C2.10352 14.2908 2.20186 14.1713 2.38686 14.2008C2.34241 14.1808 2.32075 14.138 2.3163 14.0891C2.34964 14.103 2.38686 14.1047 2.38686 14.1047C2.36519 14.0669 2.33519 14.0341 2.3363 13.9586C2.37075 13.9747 2.40241 14.003 2.4463 13.9847C2.37741 13.8497 2.46186 13.6641 2.67741 13.6191C2.60424 13.6987 2.56257 13.8022 2.56019 13.9102C2.56019 14.2324 2.65019 14.2858 2.65019 14.5091C2.64852 14.5612 2.63469 14.6121 2.6098 14.6578C2.58491 14.7035 2.54965 14.7428 2.50686 14.7724V14.7686C2.56908 14.7852 2.60964 14.8169 2.63297 14.8586C2.48908 14.8991 2.27964 14.8986 2.16797 14.8547C2.11735 14.8473 2.069 14.8288 2.02643 14.8005C1.98386 14.7721 1.94814 14.7347 1.92186 14.6908C1.8948 14.6282 1.88084 14.5607 1.88084 14.4924C1.88084 14.4242 1.8948 14.3567 1.92186 14.2941C2.00741 14.1158 2.41075 13.2608 2.5363 12.9913C2.56349 12.934 2.57808 12.8715 2.57908 12.808C2.57908 12.6441 2.42852 12.5863 2.34297 12.5863C2.24019 12.5863 2.13575 12.6652 2.13575 12.7619C2.13575 12.8241 2.16964 12.8608 2.21741 12.8608C2.33352 12.8608 2.3263 12.7624 2.30297 12.7002C2.37464 12.7336 2.41686 12.7902 2.40519 12.8513C2.4463 12.8569 2.48519 12.8763 2.52075 12.9163C2.49241 12.953 2.45797 12.9797 2.40519 12.9802C2.42852 13.0747 2.36519 13.1147 2.30297 13.1363C2.32241 13.0674 2.33519 12.9869 2.21741 12.9869C2.1313 12.9869 2.06352 12.9719 2.02408 12.9158C2.0213 12.9908 2.01408 13.2852 2.01408 13.2852C2.00964 13.3963 2.16241 13.393 2.25964 13.3602C2.22241 13.488 2.14741 13.5574 1.97241 13.5397C1.99907 13.5502 2.02182 13.5687 2.03753 13.5927C2.05325 13.6167 2.06116 13.6449 2.06019 13.6736C2.06019 13.778 1.97575 13.893 1.92075 13.9274L1.89297 12.8452Z" fill="#FFCC4D"/>
<path d="M1.94599 12.8456C1.94599 12.5689 1.6971 12.4261 1.50155 12.4261C1.23821 12.4261 1.09766 12.5839 1.09766 12.7895C1.09766 12.9072 1.11932 12.9806 1.17321 13.0922L1.7771 14.3461C1.79846 14.399 1.80795 14.4559 1.80488 14.5128C1.80488 14.625 1.69543 14.7172 1.58155 14.72C1.4771 14.7228 1.36377 14.6228 1.36377 14.5089C1.36377 14.3706 1.43488 14.3095 1.50877 14.3095C1.59932 14.3095 1.63543 14.3461 1.63543 14.41C1.63543 14.455 1.61377 14.4739 1.58321 14.4739C1.50543 14.4739 1.5271 14.3695 1.5271 14.3695C1.51675 14.3716 1.507 14.376 1.49854 14.3824C1.49008 14.3887 1.48311 14.3968 1.47813 14.4061C1.47315 14.4155 1.47028 14.4258 1.46971 14.4363C1.46915 14.4469 1.47092 14.4574 1.47488 14.4672C1.44583 14.4735 1.41954 14.4889 1.39988 14.5111C1.41993 14.5324 1.44618 14.5468 1.47488 14.5522C1.4571 14.6122 1.48155 14.6417 1.53377 14.6539C1.52501 14.6336 1.52249 14.6112 1.52655 14.5895C1.60932 14.6128 1.73599 14.5761 1.73599 14.4328C1.73599 14.2906 1.63766 14.1711 1.45321 14.2006C1.4971 14.1806 1.51932 14.1378 1.52321 14.0889C1.50087 14.0979 1.47723 14.1031 1.45321 14.1045C1.47432 14.0667 1.50432 14.0339 1.50321 13.9584C1.46877 13.9745 1.43766 14.0028 1.39321 13.9845C1.4621 13.8495 1.37766 13.6639 1.1621 13.6189C1.23527 13.6985 1.27695 13.802 1.27932 13.91C1.27932 14.2322 1.18988 14.2856 1.18988 14.5089C1.18988 14.6022 1.23821 14.7039 1.33321 14.7722V14.7684C1.30702 14.7736 1.28224 14.7843 1.2605 14.7998C1.23877 14.8153 1.22056 14.8353 1.2071 14.8584C1.35099 14.8989 1.55988 14.8984 1.6721 14.8545C1.72272 14.8471 1.77107 14.8286 1.81364 14.8003C1.85621 14.7719 1.89193 14.7345 1.91821 14.6906C1.94527 14.628 1.95923 14.5605 1.95923 14.4922C1.95923 14.424 1.94527 14.3565 1.91821 14.2939C1.83266 14.1156 1.42932 13.2606 1.30377 12.9911C1.27658 12.9338 1.26199 12.8713 1.26099 12.8078C1.26099 12.6439 1.41155 12.5861 1.4971 12.5861C1.59988 12.5861 1.70432 12.665 1.70432 12.7617C1.70432 12.8239 1.67043 12.8606 1.62266 12.8606C1.50655 12.8606 1.51377 12.7622 1.53655 12.7C1.46488 12.7334 1.42266 12.79 1.43432 12.8511C1.38922 12.8581 1.34817 12.8812 1.31877 12.9161C1.3471 12.9528 1.38155 12.9795 1.43432 12.98C1.41099 13.0745 1.47432 13.1145 1.53655 13.1361C1.5171 13.0672 1.50432 12.9867 1.62266 12.9867C1.70877 12.9867 1.77655 12.9717 1.81599 12.9156L1.82599 13.285C1.83043 13.3961 1.6771 13.3928 1.57988 13.36C1.61655 13.4872 1.6921 13.5567 1.86655 13.5389C1.83989 13.5494 1.81714 13.568 1.80142 13.5919C1.78571 13.6159 1.77779 13.6442 1.77877 13.6728C1.77877 13.7772 1.86266 13.8922 1.91821 13.9267L1.94599 12.8456ZM1.91877 15.8467C1.91877 15.8467 2.05043 15.9561 2.09488 15.9011C2.16655 15.8122 1.87432 15.3684 1.87432 15.2117C1.87432 14.9556 2.04599 14.8845 2.2571 14.8484C2.39932 14.8239 2.63043 14.8589 2.63043 14.8589C2.58655 14.9172 2.55877 14.9356 2.48543 14.9389C2.53572 14.9658 2.57765 15.006 2.60665 15.055C2.63565 15.1041 2.6506 15.1602 2.64988 15.2172C2.64988 15.4372 2.55877 15.5284 2.55877 15.7778C2.55877 15.9161 2.6721 16.0917 2.6721 16.0917C2.4721 16.0717 2.3721 15.8867 2.42877 15.7378C2.41346 15.7352 2.39776 15.7362 2.38291 15.7408C2.36806 15.7453 2.35447 15.7532 2.34321 15.7639C2.32877 15.7234 2.3521 15.675 2.38266 15.6345C2.35766 15.6217 2.33932 15.6295 2.29988 15.6372C2.30377 15.595 2.32877 15.5506 2.39099 15.5084C2.21099 15.5545 2.10043 15.4295 2.10043 15.2984C2.10043 15.1984 2.16988 15.1272 2.23821 15.1272C2.26043 15.1272 2.29266 15.1367 2.31099 15.15C2.32377 15.1234 2.3171 15.0867 2.30377 15.0595C2.35377 15.0722 2.38488 15.1017 2.36266 15.1639C2.3796 15.1642 2.3963 15.168 2.4117 15.1751C2.4271 15.1821 2.44086 15.1923 2.4521 15.205C2.44124 15.2181 2.42753 15.2285 2.41203 15.2354C2.39652 15.2424 2.37963 15.2456 2.36266 15.245C2.39043 15.3028 2.35932 15.3356 2.31432 15.3611C2.31432 15.3611 2.34321 15.245 2.26932 15.245C2.23599 15.245 2.20599 15.2567 2.20599 15.305C2.20599 15.3467 2.24321 15.4056 2.32877 15.4022C2.41432 15.3989 2.48377 15.3428 2.48377 15.2067C2.48377 15.0795 2.3821 15.0167 2.24821 15.0128C2.1271 15.0089 2.03599 15.0745 2.03599 15.1995C2.03599 15.365 2.27599 15.7439 2.27599 15.8917C2.27599 16.0028 2.17655 16.0645 2.07877 16.0645C1.9521 16.0645 1.84543 15.9389 1.84543 15.9389L1.91877 15.8467ZM1.89099 7.98836C1.89099 7.71058 2.13988 7.56836 2.33543 7.56836C2.59877 7.56836 2.73932 7.72614 2.73932 7.93225C2.73932 8.04947 2.71766 8.1228 2.66377 8.23447L2.05988 9.48891C2.03841 9.54155 2.02874 9.59825 2.03155 9.65503C2.03155 9.7678 2.14099 9.85947 2.25543 9.8628C2.35932 9.86503 2.47321 9.76503 2.47321 9.65169C2.47321 9.51391 2.4021 9.45225 2.32821 9.45225C2.23766 9.45225 2.20155 9.48947 2.20155 9.55336C2.20155 9.59725 2.22321 9.61669 2.25377 9.61669C2.33155 9.61669 2.30988 9.51225 2.30988 9.51225C2.32009 9.51444 2.32971 9.51882 2.33806 9.52508C2.34642 9.53135 2.35332 9.53935 2.35828 9.54854C2.36325 9.55773 2.36616 9.56788 2.36682 9.57831C2.36748 9.58873 2.36587 9.59917 2.3621 9.60892C2.39122 9.6153 2.41752 9.63088 2.4371 9.65336C2.4169 9.67452 2.39074 9.68905 2.3621 9.69503C2.38043 9.75503 2.35599 9.78391 2.30377 9.79669C2.31253 9.77641 2.31504 9.75397 2.31099 9.73225C2.22821 9.75558 2.10155 9.71891 2.10155 9.57558C2.10155 9.43391 2.19988 9.31447 2.38488 9.34391C2.34043 9.3228 2.31877 9.28003 2.31432 9.23225C2.34766 9.24558 2.38488 9.24669 2.38488 9.24669C2.36321 9.20891 2.33321 9.17614 2.33432 9.10114C2.36877 9.11669 2.40043 9.14558 2.44432 9.12725C2.37543 8.99169 2.45988 8.80558 2.67543 8.76169C2.60226 8.84125 2.56059 8.94474 2.55821 9.0528C2.55821 9.37447 2.64821 9.42836 2.64821 9.65225C2.64821 9.74558 2.59988 9.84669 2.50488 9.91558V9.91169C2.56599 9.92836 2.60599 9.95891 2.62988 10.0011C2.48599 10.0422 2.27655 10.0411 2.16488 9.99725C2.11426 9.98992 2.06591 9.9714 2.02334 9.94306C1.98077 9.91471 1.94505 9.87724 1.91877 9.83336C1.89186 9.77089 1.87799 9.70359 1.87799 9.63558C1.87799 9.56757 1.89186 9.50027 1.91877 9.4378C2.00432 9.25891 2.40766 8.40391 2.53321 8.13447C2.5604 8.07712 2.57499 8.0146 2.57599 7.95114C2.57599 7.78669 2.42543 7.72891 2.33988 7.72891C2.2371 7.72891 2.13266 7.80725 2.13266 7.90391C2.13266 7.96614 2.16655 8.00336 2.21432 8.00336C2.33043 8.00336 2.32321 7.90447 2.29988 7.8428C2.37155 7.87503 2.41377 7.9328 2.4021 7.99391C2.44321 7.99947 2.4821 8.01836 2.51766 8.05947C2.48932 8.09503 2.45488 8.12169 2.4021 8.1228C2.42543 8.2178 2.3621 8.2578 2.29988 8.27947C2.31932 8.21058 2.3321 8.13058 2.21432 8.13058C2.12821 8.13058 2.06043 8.11558 2.02099 8.06003C2.01821 8.13447 2.01099 8.42947 2.01099 8.42947C2.00655 8.54003 2.15932 8.53725 2.25655 8.50391C2.22043 8.63169 2.14543 8.70058 1.97043 8.6828C1.99718 8.69337 2.02 8.71197 2.03572 8.73606C2.05144 8.76014 2.0593 8.78851 2.05821 8.81725C2.05821 8.92114 1.97377 9.03669 1.91877 9.07058L1.89099 7.98836Z" fill="#FFCC4D"/>
<path d="M1.94599 7.98836C1.94599 7.71058 1.6971 7.56836 1.50155 7.56836C1.23821 7.56836 1.09766 7.72614 1.09766 7.93225C1.09766 8.04947 1.11932 8.1228 1.17321 8.23447L1.7771 9.48891C1.79821 9.5328 1.80488 9.58225 1.80488 9.65503C1.80488 9.7678 1.69543 9.85947 1.58155 9.8628C1.4771 9.86503 1.36377 9.76503 1.36377 9.65169C1.36377 9.51391 1.43488 9.45225 1.50877 9.45225C1.59932 9.45225 1.63543 9.48947 1.63543 9.55336C1.63543 9.59725 1.61377 9.61669 1.58321 9.61669C1.50543 9.61669 1.5271 9.51225 1.5271 9.51225C1.51679 9.51426 1.50705 9.51853 1.49859 9.52476C1.49012 9.53098 1.48315 9.539 1.47815 9.54824C1.47316 9.55749 1.47028 9.56772 1.46971 9.57821C1.46914 9.5887 1.47091 9.59919 1.47488 9.60892C1.44576 9.6153 1.41946 9.63088 1.39988 9.65336C1.42008 9.67452 1.44624 9.68905 1.47488 9.69503C1.4571 9.75503 1.48099 9.78391 1.53321 9.79669C1.52445 9.77641 1.52194 9.75397 1.52599 9.73225C1.60877 9.75558 1.73543 9.71891 1.73543 9.57558C1.73543 9.43391 1.6371 9.31447 1.45266 9.34391C1.49655 9.3228 1.51877 9.28003 1.52266 9.23225C1.48932 9.24558 1.45266 9.24669 1.45266 9.24669C1.47377 9.20891 1.50377 9.17614 1.50266 9.10114C1.46821 9.11669 1.4371 9.14558 1.39266 9.12725C1.46155 8.99169 1.3771 8.80558 1.16155 8.76169C1.23472 8.84125 1.27639 8.94474 1.27877 9.0528C1.27877 9.37447 1.18932 9.42836 1.18932 9.65225C1.18932 9.74558 1.23766 9.84669 1.33266 9.91558V9.91169C1.27155 9.92873 1.22988 9.95854 1.20766 10.0011C1.35155 10.0422 1.56043 10.0411 1.67266 9.99725C1.72327 9.98992 1.77162 9.9714 1.81419 9.94306C1.85676 9.91471 1.89249 9.87724 1.91877 9.83336C1.94567 9.77089 1.95955 9.70359 1.95955 9.63558C1.95955 9.56757 1.94567 9.50027 1.91877 9.4378C1.83321 9.25891 1.42988 8.40391 1.30432 8.13447C1.27721 8.07729 1.26263 8.01497 1.26155 7.95169C1.26155 7.78725 1.4121 7.72947 1.49766 7.72947C1.60043 7.72947 1.70488 7.8078 1.70488 7.90447C1.70488 7.96669 1.67099 8.00391 1.62321 8.00391C1.5071 8.00391 1.51432 7.90503 1.5371 7.84336C1.46543 7.87558 1.42321 7.93336 1.43488 7.99447C1.38952 8.00111 1.34829 8.02449 1.31932 8.06003C1.34766 8.09558 1.3821 8.12225 1.43488 8.12336C1.41155 8.21836 1.47488 8.25836 1.5371 8.28003C1.51766 8.21114 1.50488 8.13114 1.62321 8.13114C1.70932 8.13114 1.7771 8.11614 1.81655 8.06058L1.82599 8.42891C1.83043 8.53947 1.6771 8.53669 1.57988 8.50336C1.61655 8.63114 1.6921 8.70003 1.86655 8.6828C1.83979 8.69337 1.81698 8.71197 1.80126 8.73606C1.78554 8.76014 1.77768 8.78851 1.77877 8.81725C1.77877 8.92114 1.86266 9.03669 1.91821 9.07058L1.94599 7.98836Z" fill="#FFCC4D"/>
<path d="M1.94604 7.15574C1.94604 7.43296 1.69715 7.57574 1.50159 7.57574C1.23826 7.57574 1.09771 7.41796 1.09771 7.21129C1.09771 7.09463 1.11937 7.0213 1.17326 6.90907L1.77715 5.65463C1.79843 5.60195 1.80791 5.54525 1.80493 5.48852C1.80493 5.3763 1.69548 5.28407 1.58159 5.2813C1.47715 5.27907 1.36382 5.37852 1.36382 5.49241C1.36382 5.63074 1.43493 5.69185 1.50882 5.69185C1.59937 5.69185 1.63548 5.65463 1.63548 5.59074C1.63548 5.5463 1.61382 5.52741 1.58326 5.52741C1.50548 5.52741 1.52715 5.63185 1.52715 5.63185C1.51687 5.62968 1.50719 5.62529 1.49878 5.61898C1.49037 5.61268 1.48344 5.60462 1.47846 5.59537C1.47349 5.58611 1.4706 5.57588 1.46999 5.56539C1.46938 5.5549 1.47106 5.5444 1.47493 5.53463C1.44573 5.52878 1.41933 5.51333 1.39993 5.49074C1.4202 5.46978 1.44635 5.45545 1.47493 5.44963C1.45715 5.38963 1.48159 5.36074 1.53382 5.34796C1.52506 5.36825 1.52254 5.39068 1.52659 5.41241C1.60937 5.38907 1.73604 5.42685 1.73604 5.56907C1.73604 5.71129 1.63771 5.83018 1.45326 5.80074C1.49715 5.82185 1.51937 5.86463 1.52326 5.91241C1.50065 5.9046 1.47712 5.89974 1.45326 5.89796C1.47437 5.93574 1.50437 5.96852 1.50326 6.04352C1.46882 6.02796 1.43771 5.99907 1.39326 6.01741C1.46215 6.15296 1.37771 6.33907 1.16215 6.38352C1.23545 6.30382 1.27713 6.20011 1.27937 6.09185C1.27937 5.77074 1.18993 5.71629 1.18993 5.49296C1.18993 5.39963 1.23826 5.29852 1.33326 5.22963V5.23352C1.30712 5.22815 1.28242 5.2173 1.26078 5.20169C1.23914 5.18608 1.22105 5.16607 1.20771 5.14296C1.35159 5.10241 1.56048 5.10296 1.67271 5.14741C1.72337 5.1548 1.77175 5.1734 1.81433 5.20184C1.8569 5.23029 1.8926 5.26787 1.91882 5.31185C1.94572 5.37432 1.9596 5.44162 1.9596 5.50963C1.9596 5.57764 1.94572 5.64494 1.91882 5.70741C1.83326 5.8863 1.42993 6.74129 1.30437 7.01018C1.27726 7.06737 1.26268 7.12968 1.26159 7.19296C1.26159 7.35796 1.41215 7.41518 1.49771 7.41518C1.60048 7.41518 1.70493 7.33685 1.70493 7.23963C1.70493 7.17796 1.67104 7.14018 1.62326 7.14018C1.50715 7.14018 1.51437 7.23852 1.53715 7.30074C1.46548 7.26852 1.42326 7.21074 1.43493 7.14963C1.38957 7.14299 1.34834 7.1196 1.31937 7.08407C1.34771 7.04852 1.38215 7.02129 1.43493 7.02074C1.41159 6.92629 1.47493 6.88574 1.53715 6.86352C1.51771 6.93296 1.50493 7.01352 1.62326 7.01352C1.70937 7.01352 1.77715 7.02796 1.81659 7.08407L1.82659 6.71407C1.83104 6.60352 1.67771 6.60685 1.58048 6.63963C1.61715 6.51185 1.69271 6.44296 1.86715 6.46018C1.8404 6.44962 1.81759 6.43101 1.80187 6.40693C1.78614 6.38285 1.77828 6.35448 1.77937 6.32574C1.77937 6.22185 1.86326 6.10629 1.91882 6.07241L1.94604 7.15574ZM1.94604 12.0135C1.94604 12.2907 1.69715 12.433 1.50159 12.433C1.23826 12.433 1.09771 12.2757 1.09771 12.0696C1.09636 11.9641 1.12239 11.8599 1.17326 11.7674L1.77715 10.513C1.79843 10.4603 1.80791 10.4036 1.80493 10.3468C1.80493 10.2341 1.69548 10.1424 1.58159 10.1396C1.47715 10.1369 1.36382 10.2369 1.36382 10.3502C1.36382 10.488 1.43493 10.5496 1.50882 10.5496C1.59937 10.5496 1.63548 10.5124 1.63548 10.4485C1.63548 10.4046 1.61382 10.3857 1.58326 10.3857C1.50548 10.3857 1.52715 10.4902 1.52715 10.4902C1.51687 10.488 1.50719 10.4836 1.49878 10.4773C1.49037 10.471 1.48344 10.463 1.47846 10.4537C1.47349 10.4444 1.4706 10.4342 1.46999 10.4237C1.46938 10.4132 1.47106 10.4027 1.47493 10.393C1.44565 10.387 1.41924 10.3713 1.39993 10.3485C1.41998 10.3273 1.44623 10.3129 1.47493 10.3074C1.45715 10.2469 1.48104 10.218 1.53326 10.2052C1.5245 10.2255 1.52199 10.2479 1.52604 10.2696C1.60882 10.2463 1.73548 10.2835 1.73548 10.4263C1.73548 10.568 1.63715 10.6869 1.45271 10.658C1.49659 10.6796 1.51882 10.7219 1.52271 10.7702C1.48937 10.7574 1.45271 10.7552 1.45271 10.7552C1.47382 10.793 1.50382 10.8263 1.50271 10.9007C1.46826 10.8852 1.43715 10.8563 1.39271 10.8746C1.46159 11.0096 1.37715 11.1969 1.16159 11.2402C1.23477 11.1606 1.27644 11.0571 1.27882 10.9491C1.27882 10.6285 1.18937 10.5735 1.18937 10.3502C1.18937 10.2563 1.23771 10.1552 1.33271 10.0869V10.0902C1.27159 10.0739 1.22993 10.0441 1.20771 10.0007C1.35159 9.96018 1.56048 9.96074 1.67271 10.0052C1.72332 10.0125 1.77167 10.031 1.81424 10.0594C1.85681 10.0877 1.89254 10.1252 1.91882 10.1691C1.94572 10.2315 1.9596 10.2988 1.9596 10.3669C1.9596 10.4349 1.94572 10.5022 1.91882 10.5646C1.83326 10.7435 1.42993 11.5985 1.30437 11.868C1.27726 11.9251 1.26268 11.9875 1.26159 12.0507C1.26159 12.2152 1.41215 12.2724 1.49771 12.2724C1.60048 12.2724 1.70493 12.1941 1.70493 12.0969C1.70493 12.0363 1.67104 11.9985 1.62326 11.9985C1.50715 11.9985 1.51437 12.0969 1.53715 12.1585C1.46548 12.1263 1.42326 12.068 1.43493 12.0074C1.38965 12.0009 1.34843 11.9777 1.31937 11.9424C1.33248 11.9236 1.34971 11.9081 1.36974 11.8971C1.38977 11.886 1.41207 11.8796 1.43493 11.8785C1.41159 11.7841 1.47493 11.7446 1.53715 11.7224C1.51771 11.7919 1.50493 11.8719 1.62326 11.8719C1.70937 11.8719 1.77715 11.8863 1.81659 11.943L1.82659 11.573C1.83104 11.463 1.67771 11.4657 1.58048 11.4985C1.61715 11.3713 1.69271 11.3024 1.86715 11.3196C1.8404 11.3091 1.81759 11.2905 1.80187 11.2664C1.78614 11.2423 1.77828 11.2139 1.77937 11.1852C1.77937 11.0813 1.86326 10.9663 1.91882 10.9319L1.94604 12.0135Z" fill="#FFCC4D"/>
<path d="M1.88986 12.0135C1.88986 12.2907 2.13875 12.4329 2.33431 12.4329C2.59764 12.4329 2.73819 12.2757 2.73819 12.0696C2.73954 11.964 2.71351 11.8599 2.66264 11.7674L2.05875 10.5129C2.03728 10.4603 2.02761 10.4036 2.03042 10.3468C2.03042 10.234 2.13986 10.1424 2.25431 10.1396C2.35819 10.1368 2.47208 10.2368 2.47208 10.3502C2.47208 10.4879 2.40097 10.5496 2.32708 10.5496C2.23653 10.5496 2.20042 10.5124 2.20042 10.4485C2.20042 10.4046 2.22208 10.3857 2.25264 10.3857C2.33042 10.3857 2.30875 10.4902 2.30875 10.4902C2.31903 10.488 2.32871 10.4836 2.33712 10.4773C2.34553 10.471 2.35246 10.4629 2.35744 10.4537C2.36241 10.4444 2.3653 10.4342 2.36591 10.4237C2.36652 10.4132 2.36484 10.4027 2.36097 10.3929C2.39025 10.3869 2.41666 10.3713 2.43597 10.3485C2.41592 10.3272 2.38967 10.3129 2.36097 10.3074C2.37931 10.2468 2.35486 10.2179 2.30264 10.2052C2.31319 10.2285 2.31319 10.2496 2.30986 10.2696C2.22708 10.2463 2.10042 10.2835 2.10042 10.4263C2.10042 10.5679 2.19875 10.6868 2.38375 10.6579C2.33931 10.6796 2.31764 10.7218 2.31319 10.7702C2.34653 10.7574 2.38375 10.7552 2.38375 10.7552C2.36208 10.7929 2.33208 10.8263 2.33319 10.9007C2.36764 10.8852 2.39931 10.8563 2.44319 10.8746C2.37431 11.0096 2.45875 11.1968 2.67431 11.2402C2.60113 11.1606 2.55946 11.0571 2.55708 10.949C2.55708 10.6285 2.64708 10.5735 2.64708 10.3502C2.64542 10.2981 2.63158 10.2472 2.60669 10.2015C2.5818 10.1557 2.54655 10.1165 2.50375 10.0868V10.0902C2.52994 10.0849 2.55472 10.0742 2.57646 10.0587C2.5982 10.0432 2.6164 10.0232 2.62986 10.0002C2.48597 9.9596 2.27653 9.96016 2.16486 10.0046C2.11424 10.0119 2.0659 10.0304 2.02333 10.0588C1.98075 10.0871 1.94503 10.1246 1.91875 10.1685C1.89185 10.231 1.87797 10.2983 1.87797 10.3663C1.87797 10.4343 1.89185 10.5016 1.91875 10.564C2.00431 10.7429 2.40764 11.5979 2.53319 11.8674C2.55986 11.924 2.57597 11.984 2.57597 12.0502C2.57597 12.2146 2.42542 12.2718 2.33986 12.2718C2.23708 12.2718 2.13264 12.1935 2.13264 12.0963C2.13264 12.0357 2.16653 11.9979 2.21431 11.9979C2.33042 11.9979 2.32319 12.0963 2.29986 12.1579C2.37153 12.1257 2.41375 12.0674 2.40208 12.0068C2.44754 12.0009 2.48894 11.9776 2.51764 11.9418C2.50453 11.9231 2.4873 11.9076 2.46727 11.8965C2.44724 11.8854 2.42494 11.8791 2.40208 11.8779C2.42542 11.7835 2.36208 11.744 2.29986 11.7218C2.31931 11.7913 2.33208 11.8713 2.21431 11.8713C2.12819 11.8713 2.06042 11.8857 2.02097 11.9424C2.01819 11.8679 2.01097 11.5724 2.01097 11.5724C2.00653 11.4624 2.15931 11.4652 2.25653 11.4979C2.21931 11.3707 2.14431 11.3018 1.96931 11.319C1.99606 11.3085 2.01887 11.2899 2.03459 11.2658C2.05031 11.2417 2.05817 11.2133 2.05708 11.1846C2.05708 11.0807 1.97264 10.9657 1.91764 10.9313L1.88986 12.0135ZM1.91764 4.15571C1.91764 4.15571 2.04931 4.04516 2.09375 4.10016C2.16542 4.1896 1.87319 4.63349 1.87319 4.79016C1.87319 5.04682 2.04486 5.11627 2.25597 5.15293C2.39819 5.17793 2.62931 5.14293 2.62931 5.14293C2.58486 5.0846 2.55708 5.06738 2.48375 5.06293C2.53427 5.03664 2.57644 4.99675 2.6055 4.94777C2.63456 4.89879 2.64934 4.84265 2.64819 4.78571C2.64819 4.5646 2.55708 4.47349 2.55708 4.2246C2.55708 4.08627 2.67042 3.91016 2.67042 3.91016C2.47042 3.93071 2.37042 4.11571 2.42708 4.26404C2.41186 4.26701 2.39614 4.26617 2.38132 4.26162C2.36649 4.25706 2.35302 4.24893 2.34208 4.23793C2.32764 4.27904 2.35097 4.32682 2.38153 4.36793C2.35653 4.38127 2.33819 4.37293 2.29875 4.3646C2.30264 4.40738 2.32764 4.45182 2.38986 4.49405C2.20931 4.44738 2.09875 4.57293 2.09875 4.7046C2.09875 4.80405 2.16819 4.8746 2.23653 4.8746C2.25875 4.8746 2.29097 4.86571 2.30931 4.85182C2.32208 4.87905 2.31542 4.91571 2.30208 4.94293C2.35208 4.93016 2.38319 4.90016 2.36097 4.83849C2.37786 4.83789 2.39446 4.83395 2.40981 4.82689C2.42517 4.81984 2.43897 4.8098 2.45042 4.79738C2.43955 4.78414 2.42578 4.77359 2.41017 4.76656C2.39456 4.75952 2.37753 4.75619 2.36042 4.75682C2.38819 4.69905 2.35708 4.66682 2.31208 4.64127C2.31208 4.64127 2.34097 4.75682 2.26708 4.75682C2.23375 4.75682 2.20375 4.74571 2.20375 4.69738C2.20375 4.65516 2.24097 4.59627 2.32653 4.60016C2.41208 4.60349 2.48153 4.65905 2.48153 4.79627C2.48153 4.92238 2.37986 4.9846 2.24597 4.98905C2.12542 4.99238 2.03431 4.92682 2.03431 4.80238C2.03431 4.63627 2.27431 4.25849 2.27431 4.11016C2.27431 3.99904 2.17486 3.93682 2.07708 3.93682C1.95042 3.93682 1.84375 4.06238 1.84375 4.06238L1.91764 4.15571Z" fill="#FFCC4D"/>
<path d="M1.9174 4.15571C1.9174 4.15571 1.78573 4.04516 1.74128 4.10016C1.66906 4.19016 1.96184 4.63404 1.96184 4.79071C1.96184 5.04738 1.79017 5.11682 1.57906 5.15349C1.43684 5.17793 1.20628 5.14293 1.20628 5.14293C1.24962 5.0846 1.27795 5.06738 1.35128 5.06293C1.30066 5.03672 1.25837 4.99686 1.22922 4.94787C1.20006 4.89888 1.18519 4.84271 1.18628 4.78571C1.18628 4.5646 1.2774 4.47349 1.2774 4.2246C1.2774 4.08627 1.16406 3.91016 1.16406 3.91016C1.36406 3.93071 1.46406 4.11571 1.4074 4.26404C1.4227 4.26663 1.43841 4.26562 1.45326 4.26109C1.46811 4.25656 1.4817 4.24863 1.49295 4.23793C1.5074 4.27904 1.48462 4.32682 1.45351 4.36793C1.47795 4.38127 1.49628 4.37293 1.53628 4.3646C1.5324 4.40738 1.50684 4.45182 1.44517 4.49405C1.62517 4.44738 1.73573 4.57293 1.73573 4.7046C1.73573 4.80405 1.66628 4.8746 1.59795 4.8746C1.57204 4.87395 1.54683 4.86606 1.52517 4.85182C1.51295 4.8796 1.51962 4.91571 1.5324 4.94293C1.48295 4.93016 1.45184 4.90016 1.47406 4.83904C1.45718 4.83845 1.44058 4.83451 1.42522 4.82745C1.40987 4.82039 1.39607 4.81036 1.38462 4.79793C1.39537 4.78467 1.40903 4.77406 1.42454 4.76693C1.44005 4.7598 1.457 4.75634 1.47406 4.75682C1.44628 4.69904 1.4774 4.66682 1.5224 4.64127C1.5224 4.64127 1.49351 4.75682 1.5674 4.75682C1.60073 4.75682 1.63073 4.74571 1.63073 4.69738C1.63073 4.65516 1.59351 4.59627 1.50795 4.60016C1.42184 4.60349 1.3524 4.65904 1.3524 4.79571C1.3524 4.92182 1.45406 4.98404 1.58795 4.98849C1.70906 4.99182 1.80017 4.92682 1.80017 4.80182C1.80017 4.63571 1.56017 4.25793 1.56017 4.1096C1.56017 3.99849 1.65962 3.93627 1.7574 3.93627C1.88406 3.93627 1.99073 4.06182 1.99073 4.06182L1.9174 4.15571ZM1.88962 7.15571C1.88962 7.43293 2.13851 7.57571 2.33406 7.57571C2.5974 7.57571 2.73795 7.41793 2.73795 7.21127C2.73795 7.0946 2.71628 7.02127 2.6624 6.90904L2.05851 5.6546C2.03731 5.6021 2.02783 5.54559 2.03073 5.48904C2.03073 5.37682 2.14017 5.2846 2.25462 5.28182C2.35851 5.2796 2.4724 5.37904 2.4724 5.49293C2.4724 5.63127 2.40128 5.69238 2.3274 5.69238C2.23684 5.69238 2.20073 5.65516 2.20073 5.59127C2.20073 5.54682 2.2224 5.52793 2.25295 5.52793C2.33073 5.52793 2.30906 5.63238 2.30906 5.63238C2.31934 5.6302 2.32903 5.62581 2.33744 5.61951C2.34584 5.61321 2.35278 5.60515 2.35775 5.59589C2.36272 5.58664 2.36561 5.57641 2.36622 5.56592C2.36684 5.55542 2.36515 5.54493 2.36128 5.53516C2.39036 5.52905 2.41656 5.51341 2.43573 5.49071C2.4153 5.46965 2.38895 5.45531 2.36017 5.4496C2.37851 5.3896 2.35406 5.36071 2.30184 5.34793C2.3124 5.37127 2.3124 5.39238 2.30906 5.41238C2.22628 5.38905 2.09962 5.42627 2.09962 5.56904C2.09962 5.71071 2.19795 5.83016 2.38295 5.80071C2.33851 5.82182 2.31684 5.8646 2.3124 5.91238C2.33519 5.90452 2.35891 5.89967 2.38295 5.89793C2.36128 5.93571 2.33128 5.96849 2.3324 6.04349C2.36684 6.02793 2.39851 5.99904 2.4424 6.01738C2.37351 6.15293 2.45795 6.33905 2.67351 6.38349C2.60021 6.30379 2.55853 6.20008 2.55628 6.09182C2.55628 5.77071 2.64628 5.71627 2.64628 5.49293C2.64462 5.4409 2.63079 5.38997 2.6059 5.34424C2.581 5.29851 2.54575 5.25925 2.50295 5.2296V5.23349C2.52906 5.22787 2.55374 5.21692 2.57544 5.20134C2.59713 5.18576 2.61539 5.16588 2.62906 5.14293C2.48462 5.10293 2.27517 5.10349 2.16295 5.14793C2.11243 5.15534 2.06419 5.17389 2.02172 5.20224C1.97926 5.23058 1.94362 5.26801 1.9174 5.31182C1.89049 5.37429 1.87662 5.44159 1.87662 5.5096C1.87662 5.57761 1.89049 5.64491 1.9174 5.70738C2.00295 5.88627 2.40628 6.74127 2.53184 7.01016C2.55895 7.06734 2.57353 7.12966 2.57462 7.19293C2.57462 7.35793 2.42406 7.41516 2.33851 7.41516C2.23573 7.41516 2.13128 7.33682 2.13128 7.2396C2.13128 7.17793 2.16517 7.14016 2.21295 7.14016C2.32906 7.14016 2.32184 7.23849 2.29851 7.30071C2.37017 7.26849 2.4124 7.21071 2.40073 7.1496C2.44609 7.14296 2.48732 7.11958 2.51628 7.08404C2.48795 7.04849 2.45351 7.02127 2.40073 7.02071C2.42406 6.92627 2.36073 6.88571 2.29851 6.86349C2.31795 6.93293 2.33073 7.01349 2.21295 7.01349C2.12684 7.01349 2.05906 7.02793 2.01962 7.08404C2.01684 7.0096 2.00962 6.71404 2.00962 6.71404C2.00517 6.60349 2.15795 6.60682 2.25517 6.6396C2.21906 6.51293 2.14406 6.44404 1.96906 6.46127C1.99581 6.4507 2.01862 6.4321 2.03435 6.40801C2.05007 6.38393 2.05793 6.35556 2.05684 6.32682C2.05684 6.22293 1.9724 6.10738 1.9174 6.07349L1.88962 7.15571Z" fill="#FFCC4D"/>
</svg>
