<svg width="24" height="18" viewBox="0 0 24 18" fill="none" xmlns="http://www.w3.org/2000/svg">
<g clip-path="url(#clip0_276_7238)">
<g clip-path="url(#clip1_276_7238)">
<path d="M0 12H24V18H0V12Z" fill="#1EB53A"/>
<path d="M0 0H24V6H0V0Z" fill="#0099B5"/>
<path d="M0 5.76001H24V12.24H0V5.76001Z" fill="#CE1126"/>
<path d="M0 6.12012H24V11.8801H0V6.12012Z" fill="white"/>
<path d="M5.04 5.03997C6.23294 5.03997 7.2 4.07291 7.2 2.87997C7.2 1.68704 6.23294 0.719971 5.04 0.719971C3.84707 0.719971 2.88 1.68704 2.88 2.87997C2.88 4.07291 3.84707 5.03997 5.04 5.03997Z" fill="white"/>
<path d="M5.75998 5.03997C6.95291 5.03997 7.91998 4.07291 7.91998 2.87997C7.91998 1.68704 6.95291 0.719971 5.75998 0.719971C4.56704 0.719971 3.59998 1.68704 3.59998 2.87997C3.59998 4.07291 4.56704 5.03997 5.75998 5.03997Z" fill="#0099B5"/>
<path d="M9.79122 4.17676L9.65442 4.58716L9.86322 4.65916" fill="white"/>
<path d="M9.79118 4.17676L9.92798 4.58716L9.71918 4.65916" fill="white"/>
<path d="M10.2021 4.47532L9.76948 4.47204L9.76552 4.69287" fill="white"/>
<path d="M10.2021 4.47536L9.85407 4.73229L9.72107 4.55596" fill="white"/>
<path d="M9.38041 4.47536L9.72845 4.73229L9.86145 4.55596" fill="white"/>
<path d="M9.38046 4.47532L9.81304 4.47204L9.817 4.69287" fill="white"/>
<path d="M10.0452 4.95834L9.91466 4.54591L9.70341 4.61039" fill="white"/>
<path d="M10.0452 4.95841L9.69334 4.7068L9.81995 4.52582" fill="white"/>
<path d="M9.5374 4.95841L9.8893 4.7068L9.7627 4.52582" fill="white"/>
<path d="M9.53743 4.95834L9.66798 4.54591L9.87923 4.61039" fill="white"/>
<path d="M9.79122 2.44873L9.65442 2.85913L9.86322 2.93113" fill="white"/>
<path d="M9.79118 2.44873L9.92798 2.85913L9.71918 2.93113" fill="white"/>
<path d="M10.2021 2.74729L9.76948 2.74401L9.76552 2.96484" fill="white"/>
<path d="M10.2021 2.74734L9.85407 3.00426L9.72107 2.82793" fill="white"/>
<path d="M9.38041 2.74734L9.72845 3.00426L9.86145 2.82793" fill="white"/>
<path d="M9.38046 2.74729L9.81304 2.74401L9.817 2.96484" fill="white"/>
<path d="M10.0452 3.23031L9.91466 2.81788L9.70341 2.88236" fill="white"/>
<path d="M10.0452 3.23038L9.69334 2.97877L9.81995 2.79779" fill="white"/>
<path d="M9.5374 3.23038L9.8893 2.97877L9.7627 2.79779" fill="white"/>
<path d="M9.53743 3.23031L9.66798 2.81788L9.87923 2.88236" fill="white"/>
<path d="M9.79122 0.720703L9.65442 1.1311L9.86322 1.2031" fill="white"/>
<path d="M9.79118 0.720703L9.92798 1.1311L9.71918 1.2031" fill="white"/>
<path d="M10.2021 1.01926L9.76948 1.01598L9.76552 1.23681" fill="white"/>
<path d="M10.2021 1.01931L9.85407 1.27623L9.72107 1.0999" fill="white"/>
<path d="M9.38041 1.01931L9.72845 1.27623L9.86145 1.0999" fill="white"/>
<path d="M9.38046 1.01926L9.81304 1.01598L9.817 1.23681" fill="white"/>
<path d="M10.0452 1.50228L9.91466 1.08985L9.70341 1.15433" fill="white"/>
<path d="M10.0452 1.50235L9.69334 1.25074L9.81995 1.06976" fill="white"/>
<path d="M9.5374 1.50235L9.8893 1.25074L9.7627 1.06976" fill="white"/>
<path d="M9.53743 1.50228L9.66798 1.08985L9.87923 1.15433" fill="white"/>
<path d="M11.5191 4.17676L11.3823 4.58716L11.5911 4.65916" fill="white"/>
<path d="M11.5191 4.17676L11.6559 4.58716L11.4471 4.65916" fill="white"/>
<path d="M11.93 4.47532L11.4974 4.47204L11.4934 4.69287" fill="white"/>
<path d="M11.93 4.47536L11.582 4.73229L11.449 4.55596" fill="white"/>
<path d="M11.1083 4.47536L11.4564 4.73229L11.5894 4.55596" fill="white"/>
<path d="M11.1084 4.47532L11.5409 4.47204L11.5449 4.69287" fill="white"/>
<path d="M11.7731 4.95834L11.6426 4.54591L11.4313 4.61039" fill="white"/>
<path d="M11.7731 4.95841L11.4212 4.7068L11.5479 4.52582" fill="white"/>
<path d="M11.2653 4.95841L11.6172 4.7068L11.4906 4.52582" fill="white"/>
<path d="M11.2653 4.95834L11.3959 4.54591L11.6071 4.61039" fill="white"/>
<path d="M11.5191 2.44873L11.3823 2.85913L11.5911 2.93113" fill="white"/>
<path d="M11.5191 2.44873L11.6559 2.85913L11.4471 2.93113" fill="white"/>
<path d="M11.93 2.74729L11.4974 2.74401L11.4934 2.96484" fill="white"/>
<path d="M11.93 2.74734L11.582 3.00426L11.449 2.82793" fill="white"/>
<path d="M11.1083 2.74734L11.4564 3.00426L11.5894 2.82793" fill="white"/>
<path d="M11.1084 2.74729L11.5409 2.74401L11.5449 2.96484" fill="white"/>
<path d="M11.7731 3.23031L11.6426 2.81788L11.4313 2.88236" fill="white"/>
<path d="M11.7731 3.23038L11.4212 2.97877L11.5479 2.79779" fill="white"/>
<path d="M11.2653 3.23038L11.6172 2.97877L11.4906 2.79779" fill="white"/>
<path d="M11.2653 3.23031L11.3959 2.81788L11.6071 2.88236" fill="white"/>
<path d="M11.5191 0.720703L11.3823 1.1311L11.5911 1.2031" fill="white"/>
<path d="M11.5191 0.720703L11.6559 1.1311L11.4471 1.2031" fill="white"/>
<path d="M11.93 1.01926L11.4974 1.01598L11.4934 1.23681" fill="white"/>
<path d="M11.93 1.01931L11.582 1.27623L11.449 1.0999" fill="white"/>
<path d="M11.1083 1.01931L11.4564 1.27623L11.5894 1.0999" fill="white"/>
<path d="M11.1084 1.01926L11.5409 1.01598L11.5449 1.23681" fill="white"/>
<path d="M11.7731 1.50228L11.6426 1.08985L11.4313 1.15433" fill="white"/>
<path d="M11.7731 1.50235L11.4212 1.25074L11.5479 1.06976" fill="white"/>
<path d="M11.2653 1.50235L11.6172 1.25074L11.4906 1.06976" fill="white"/>
<path d="M11.2653 1.50228L11.3959 1.08985L11.6071 1.15433" fill="white"/>
<path d="M13.2472 4.17676L13.1104 4.58716L13.3192 4.65916" fill="white"/>
<path d="M13.2471 4.17676L13.3839 4.58716L13.1751 4.65916" fill="white"/>
<path d="M13.658 4.47532L13.2254 4.47204L13.2215 4.69287" fill="white"/>
<path d="M13.658 4.47536L13.31 4.73229L13.177 4.55596" fill="white"/>
<path d="M12.8363 4.47536L13.1844 4.73229L13.3174 4.55596" fill="white"/>
<path d="M12.8364 4.47532L13.269 4.47204L13.2729 4.69287" fill="white"/>
<path d="M13.5011 4.95834L13.3706 4.54591L13.1593 4.61039" fill="white"/>
<path d="M13.5012 4.95841L13.1493 4.7068L13.2759 4.52582" fill="white"/>
<path d="M12.9933 4.95841L13.3452 4.7068L13.2186 4.52582" fill="white"/>
<path d="M12.9934 4.95834L13.1239 4.54591L13.3352 4.61039" fill="white"/>
<path d="M13.2472 2.44873L13.1104 2.85913L13.3192 2.93113" fill="white"/>
<path d="M13.2471 2.44873L13.3839 2.85913L13.1751 2.93113" fill="white"/>
<path d="M13.658 2.74729L13.2254 2.74401L13.2215 2.96484" fill="white"/>
<path d="M13.658 2.74734L13.31 3.00426L13.177 2.82793" fill="white"/>
<path d="M12.8363 2.74734L13.1844 3.00426L13.3174 2.82793" fill="white"/>
<path d="M12.8364 2.74729L13.269 2.74401L13.2729 2.96484" fill="white"/>
<path d="M13.5011 3.23031L13.3706 2.81788L13.1593 2.88236" fill="white"/>
<path d="M13.5012 3.23038L13.1493 2.97877L13.2759 2.79779" fill="white"/>
<path d="M12.9933 3.23038L13.3452 2.97877L13.2186 2.79779" fill="white"/>
<path d="M12.9934 3.23031L13.1239 2.81788L13.3352 2.88236" fill="white"/>
<path d="M13.2472 0.720703L13.1104 1.1311L13.3192 1.2031" fill="white"/>
<path d="M13.2471 0.720703L13.3839 1.1311L13.1751 1.2031" fill="white"/>
<path d="M13.658 1.01926L13.2254 1.01598L13.2215 1.23681" fill="white"/>
<path d="M13.658 1.01931L13.31 1.27623L13.177 1.0999" fill="white"/>
<path d="M12.8363 1.01931L13.1844 1.27623L13.3174 1.0999" fill="white"/>
<path d="M12.8364 1.01926L13.269 1.01598L13.2729 1.23681" fill="white"/>
<path d="M13.5011 1.50228L13.3706 1.08985L13.1593 1.15433" fill="white"/>
<path d="M13.5012 1.50235L13.1493 1.25074L13.2759 1.06976" fill="white"/>
<path d="M12.9933 1.50235L13.3452 1.25074L13.2186 1.06976" fill="white"/>
<path d="M12.9934 1.50228L13.1239 1.08985L13.3352 1.15433" fill="white"/>
<path d="M6.33516 4.17676L6.19836 4.58716L6.40716 4.65916" fill="white"/>
<path d="M6.33512 4.17676L6.47192 4.58716L6.26312 4.65916" fill="white"/>
<path d="M6.74601 4.47532L6.31342 4.47204L6.30947 4.69287" fill="white"/>
<path d="M6.74606 4.47536L6.39802 4.73229L6.26502 4.55596" fill="white"/>
<path d="M5.92435 4.47536L6.27239 4.73229L6.40539 4.55596" fill="white"/>
<path d="M5.9244 4.47532L6.35699 4.47204L6.36094 4.69287" fill="white"/>
<path d="M6.58916 4.95834L6.4586 4.54591L6.24736 4.61039" fill="white"/>
<path d="M6.58919 4.95841L6.23729 4.7068L6.36389 4.52582" fill="white"/>
<path d="M6.08134 4.95841L6.43324 4.7068L6.30664 4.52582" fill="white"/>
<path d="M6.08138 4.95834L6.21193 4.54591L6.42317 4.61039" fill="white"/>
<path d="M8.06319 4.17676L7.92639 4.58716L8.13519 4.65916" fill="white"/>
<path d="M8.06315 4.17676L8.19995 4.58716L7.99115 4.65916" fill="white"/>
<path d="M8.47404 4.47532L8.04145 4.47204L8.0375 4.69287" fill="white"/>
<path d="M8.47408 4.47536L8.12604 4.73229L7.99305 4.55596" fill="white"/>
<path d="M7.65238 4.47536L8.00042 4.73229L8.13342 4.55596" fill="white"/>
<path d="M7.65243 4.47532L8.08502 4.47204L8.08897 4.69287" fill="white"/>
<path d="M8.31718 4.95834L8.18663 4.54591L7.97539 4.61039" fill="white"/>
<path d="M8.31722 4.95841L7.96532 4.7068L8.09192 4.52582" fill="white"/>
<path d="M7.80937 4.95841L8.16127 4.7068L8.03467 4.52582" fill="white"/>
<path d="M7.8094 4.95834L7.93996 4.54591L8.1512 4.61039" fill="white"/>
<path d="M8.06319 2.44873L7.92639 2.85913L8.13519 2.93113" fill="white"/>
<path d="M8.06315 2.44873L8.19995 2.85913L7.99115 2.93113" fill="white"/>
<path d="M8.47404 2.74729L8.04145 2.74401L8.0375 2.96484" fill="white"/>
<path d="M8.47408 2.74734L8.12604 3.00426L7.99305 2.82793" fill="white"/>
<path d="M7.65238 2.74734L8.00042 3.00426L8.13342 2.82793" fill="white"/>
<path d="M7.65243 2.74729L8.08502 2.74401L8.08897 2.96484" fill="white"/>
<path d="M8.31718 3.23031L8.18663 2.81788L7.97539 2.88236" fill="white"/>
<path d="M8.31722 3.23038L7.96532 2.97877L8.09192 2.79779" fill="white"/>
<path d="M7.80937 3.23038L8.16127 2.97877L8.03467 2.79779" fill="white"/>
<path d="M7.8094 3.23031L7.93996 2.81788L8.1512 2.88236" fill="white"/>
</g>
</g>
<defs>
<clipPath id="clip0_276_7238">
<rect width="24" height="18" rx="4" fill="white"/>
</clipPath>
<clipPath id="clip1_276_7238">
<rect width="24" height="18" fill="white"/>
</clipPath>
</defs>
</svg>
